<?xml version="1.0" encoding="UTF-8" standalone="no"?>
<!DOCTYPE svg PUBLIC "-//W3C//DTD SVG 1.1//EN" "http://www.w3.org/Graphics/SVG/1.1/DTD/svg11.dtd">
<svg class="railroad-diagram" width="898.5" height="110" viewBox="0 0 898.5 110" id="cte_table_name" xmlns="http://www.w3.org/2000/svg" xmlns:xlink="http://www.w3.org/1999/xlink"><g transform="translate(.5 .5)"><g><path d="M20 53v20m0 -10h20"></path></g><g><path d="M40 63h0"></path><path d="M858.5 63h0"></path><path d="M40 63h20"></path><g><path d="M60 63h0"></path><g><path d="M60 63h10"></path><path d="M828.5 63h10"></path><g class="non-terminal "><path d="M70 63h0"></path><path d="M175 63h0"></path><rect x="70" y="52" width="105" height="22" rx="10" ry="10"></rect><text x="122.5" y="67">table_name</text></g><path d="M175 63h10"></path><g><path d="M185 63h0"></path><path d="M828.5 63h0"></path><path d="M185 63a10 10 0 0 0 10 -10v-23a10 10 0 0 1 10 -10"></path><g><path d="M205 20h603.5"></path></g><path d="M808.5 20a10 10 0 0 1 10 10v23a10 10 0 0 0 10 10"></path><path d="M185 63h20"></path><g><path d="M205 63h0"></path><path d="M808.5 63h0"></path><path d="M205 63h20"></path><g><path d="M225 63h0"></path><g><path d="M225 63h10"></path><path d="M778.5 63h10"></path><g class="terminal "><path d="M235 63h0"></path><path d="M280.5 63h0"></path><rect x="235" y="52" width="45.5" height="22"></rect><text x="257.75" y="67">'('</text></g><path d="M280.5 63h10"></path><path d="M290.5 63h10"></path><g class="non-terminal "><path d="M300.5 63h0"></path><path d="M414 63h0"></path><rect x="300.5" y="52" width="113.5" height="22" rx="10" ry="10"></rect><text x="357.25" y="67">column_name</text></g><path d="M414 63h10"></path><g><path d="M424 63h0"></path><path d="M723 63h0"></path><path d="M424 63a10 10 0 0 0 10 -10v-7a10 10 0 0 1 10 -10"></path><g><path d="M444 36h259"></path></g><path d="M703 36a10 10 0 0 1 10 10v7a10 10 0 0 0 10 10"></path><path d="M424 63h20"></path><g><path d="M444 63h0"></path><path d="M703 63h0"></path><path d="M444 63h10"></path><g><path d="M454 63h0"></path><path d="M693 63h0"></path><path d="M454 63h20"></path><g><path d="M474 63h0"></path><g><path d="M474 63h10"></path><path d="M663 63h10"></path><g class="terminal "><path d="M484 63h0"></path><path d="M529.5 63h0"></path><rect x="484" y="52" width="45.5" height="22"></rect><text x="506.75" y="67">','</text></g><path d="M529.5 63h10"></path><path d="M539.5 63h10"></path><g class="non-terminal "><path d="M549.5 63h0"></path><path d="M663 63h0"></path><rect x="549.5" y="52" width="113.5" height="22" rx="10" ry="10"></rect><text x="606.25" y="67">column_name</text></g></g><path d="M673 63h0"></path></g><path d="M673 63h20"></path></g><path d="M693 63h10"></path><path d="M454 63a10 10 0 0 0 -10 10v7a10 10 0 0 0 10 10"></path><g><path d="M454 90h239"></path></g><path d="M693 90a10 10 0 0 0 10 -10v-7a10 10 0 0 0 -10 -10"></path></g><path d="M703 63h20"></path></g><path d="M723 63h10"></path><g class="terminal "><path d="M733 63h0"></path><path d="M778.5 63h0"></path><rect x="733" y="52" width="45.5" height="22"></rect><text x="755.75" y="67">')'</text></g></g><path d="M788.5 63h0"></path></g><path d="M788.5 63h20"></path></g><path d="M808.5 63h20"></path></g></g><path d="M838.5 63h0"></path></g><path d="M838.5 63h20"></path></g><path d="M 858.5 63 h 20 m 0 -10 v 20"></path></g><defs><style type="text/css"><![CDATA[
svg.railroad-diagram path { stroke-width: 2; stroke: darkgray; fill: rgba(0, 0, 0, 0);}/* All text except comments. */svg.railroad-diagram text { font: bold 12px Hack, "Source Code Pro", monospace; text-anchor: middle; fill: #404040;}/* Comment text */svg.railroad-diagram text.comment { font: italic 10px Hack, "Source Code Pro", monospace; fill: #404040;}/* The terminal boxes. */svg.railroad-diagram g.terminal rect { stroke-width: 2; stroke: #404040; fill: rgba(200, 200, 200, 1);}svg.railroad-diagram g.non-terminal rect { /* The non-terminal boxes. */ stroke-width: 2; stroke: #404040; fill: rgba(255, 255, 255, 1);}/* Multiple choice text, not working atm. */svg.railroad-diagram text.diagram-text { font-size: 12px Hack, "Source Code Pro", monospace; fill: red;}/* Multiple choice text, not working atm. */svg.railroad-diagram path.diagram-text { stroke-width: 1; stroke: red; fill: red; cursor: help;}
 ]]>
</style></defs></svg>