<?xml version="1.0" encoding="UTF-8" standalone="no"?>
<!DOCTYPE svg PUBLIC "-//W3C//DTD SVG 1.1//EN" "http://www.w3.org/Graphics/SVG/1.1/DTD/svg11.dtd">
<svg class="railroad-diagram" width="1203" height="78" viewBox="0 0 1203 78" id="delete_stmt" xmlns="http://www.w3.org/2000/svg" xmlns:xlink="http://www.w3.org/1999/xlink"><g transform="translate(.5 .5)"><g><path d="M20 37v20m0 -10h20"></path></g><g><path d="M40 47h0"></path><path d="M1163 47h0"></path><path d="M40 47h20"></path><g><path d="M60 47h0"></path><g><path d="M60 47h10"></path><path d="M1133 47h10"></path><g><path d="M70 47h0"></path><path d="M274.5 47h0"></path><path d="M70 47a10 10 0 0 0 10 -10v-7a10 10 0 0 1 10 -10"></path><g><path d="M90 20h164.5"></path></g><path d="M254.5 20a10 10 0 0 1 10 10v7a10 10 0 0 0 10 10"></path><path d="M70 47h20"></path><g class="non-terminal "><path d="M90 47h0"></path><path d="M254.5 47h0"></path><rect x="90" y="36" width="164.5" height="22" rx="10" ry="10"></rect><text x="172.25" y="51">common_table_stmt</text></g><path d="M254.5 47h20"></path></g><path d="M274.5 47h10"></path><g class="terminal "><path d="M284.5 47h0"></path><path d="M372.5 47h0"></path><rect x="284.5" y="36" width="88" height="22"></rect><text x="328.5" y="51">'DELETE'</text></g><path d="M372.5 47h10"></path><path d="M382.5 47h10"></path><g class="terminal "><path d="M392.5 47h0"></path><path d="M463.5 47h0"></path><rect x="392.5" y="36" width="71" height="22"></rect><text x="428" y="51">'FROM'</text></g><path d="M463.5 47h10"></path><path d="M473.5 47h10"></path><g class="non-terminal "><path d="M483.5 47h0"></path><path d="M673.5 47h0"></path><rect x="483.5" y="36" width="190" height="22" rx="10" ry="10"></rect><text x="578.5" y="51">qualified_table_name</text></g><path d="M673.5 47h10"></path><g><path d="M683.5 47h0"></path><path d="M937 47h0"></path><path d="M683.5 47a10 10 0 0 0 10 -10v-7a10 10 0 0 1 10 -10"></path><g><path d="M703.5 20h213.5"></path></g><path d="M917 20a10 10 0 0 1 10 10v7a10 10 0 0 0 10 10"></path><path d="M683.5 47h20"></path><g><path d="M703.5 47h0"></path><path d="M917 47h0"></path><path d="M703.5 47h20"></path><g><path d="M723.5 47h0"></path><g><path d="M723.5 47h10"></path><path d="M887 47h10"></path><g class="terminal "><path d="M733.5 47h0"></path><path d="M813 47h0"></path><rect x="733.5" y="36" width="79.5" height="22"></rect><text x="773.25" y="51">'WHERE'</text></g><path d="M813 47h10"></path><path d="M823 47h10"></path><g class="non-terminal "><path d="M833 47h0"></path><path d="M887 47h0"></path><rect x="833" y="36" width="54" height="22" rx="10" ry="10"></rect><text x="860" y="51">expr</text></g></g><path d="M897 47h0"></path></g><path d="M897 47h20"></path></g><path d="M917 47h20"></path></g><g><path d="M937 47h0"></path><path d="M1133 47h0"></path><path d="M937 47a10 10 0 0 0 10 -10v-7a10 10 0 0 1 10 -10"></path><g><path d="M957 20h156"></path></g><path d="M1113 20a10 10 0 0 1 10 10v7a10 10 0 0 0 10 10"></path><path d="M937 47h20"></path><g class="non-terminal "><path d="M957 47h0"></path><path d="M1113 47h0"></path><rect x="957" y="36" width="156" height="22" rx="10" ry="10"></rect><text x="1035" y="51">returning_clause</text></g><path d="M1113 47h20"></path></g></g><path d="M1143 47h0"></path></g><path d="M1143 47h20"></path></g><path d="M 1163 47 h 20 m 0 -10 v 20"></path></g><defs><style type="text/css"><![CDATA[
svg.railroad-diagram path { stroke-width: 2; stroke: darkgray; fill: rgba(0, 0, 0, 0);}/* All text except comments. */svg.railroad-diagram text { font: bold 12px Hack, "Source Code Pro", monospace; text-anchor: middle; fill: #404040;}/* Comment text */svg.railroad-diagram text.comment { font: italic 10px Hack, "Source Code Pro", monospace; fill: #404040;}/* The terminal boxes. */svg.railroad-diagram g.terminal rect { stroke-width: 2; stroke: #404040; fill: rgba(200, 200, 200, 1);}svg.railroad-diagram g.non-terminal rect { /* The non-terminal boxes. */ stroke-width: 2; stroke: #404040; fill: rgba(255, 255, 255, 1);}/* Multiple choice text, not working atm. */svg.railroad-diagram text.diagram-text { font-size: 12px Hack, "Source Code Pro", monospace; fill: red;}/* Multiple choice text, not working atm. */svg.railroad-diagram path.diagram-text { stroke-width: 1; stroke: red; fill: red; cursor: help;}
 ]]>
</style></defs></svg>