<?xml version="1.0" encoding="UTF-8" standalone="no"?>
<!DOCTYPE svg PUBLIC "-//W3C//DTD SVG 1.1//EN" "http://www.w3.org/Graphics/SVG/1.1/DTD/svg11.dtd">
<svg class="railroad-diagram" width="443.5" height="94" viewBox="0 0 443.5 94" id="expr_list" xmlns="http://www.w3.org/2000/svg" xmlns:xlink="http://www.w3.org/1999/xlink"><g transform="translate(.5 .5)"><g><path d="M20 37v20m0 -10h20"></path></g><g><path d="M40 47h0"></path><path d="M403.5 47h0"></path><path d="M40 47h20"></path><g><path d="M60 47h0"></path><g><path d="M60 47h10"></path><path d="M373.5 47h10"></path><g class="non-terminal "><path d="M70 47h0"></path><path d="M124 47h0"></path><rect x="70" y="36" width="54" height="22" rx="10" ry="10"></rect><text x="97" y="51">expr</text></g><path d="M124 47h10"></path><g><path d="M134 47h0"></path><path d="M373.5 47h0"></path><path d="M134 47a10 10 0 0 0 10 -10v-7a10 10 0 0 1 10 -10"></path><g><path d="M154 20h199.5"></path></g><path d="M353.5 20a10 10 0 0 1 10 10v7a10 10 0 0 0 10 10"></path><path d="M134 47h20"></path><g><path d="M154 47h0"></path><path d="M353.5 47h0"></path><path d="M154 47h10"></path><g><path d="M164 47h0"></path><path d="M343.5 47h0"></path><path d="M164 47h20"></path><g><path d="M184 47h0"></path><g><path d="M184 47h10"></path><path d="M313.5 47h10"></path><g class="terminal "><path d="M194 47h0"></path><path d="M239.5 47h0"></path><rect x="194" y="36" width="45.5" height="22"></rect><text x="216.75" y="51">','</text></g><path d="M239.5 47h10"></path><path d="M249.5 47h10"></path><g class="non-terminal "><path d="M259.5 47h0"></path><path d="M313.5 47h0"></path><rect x="259.5" y="36" width="54" height="22" rx="10" ry="10"></rect><text x="286.5" y="51">expr</text></g></g><path d="M323.5 47h0"></path></g><path d="M323.5 47h20"></path></g><path d="M343.5 47h10"></path><path d="M164 47a10 10 0 0 0 -10 10v7a10 10 0 0 0 10 10"></path><g><path d="M164 74h179.5"></path></g><path d="M343.5 74a10 10 0 0 0 10 -10v-7a10 10 0 0 0 -10 -10"></path></g><path d="M353.5 47h20"></path></g></g><path d="M383.5 47h0"></path></g><path d="M383.5 47h20"></path></g><path d="M 403.5 47 h 20 m 0 -10 v 20"></path></g><defs><style type="text/css"><![CDATA[
svg.railroad-diagram path { stroke-width: 2; stroke: darkgray; fill: rgba(0, 0, 0, 0);}/* All text except comments. */svg.railroad-diagram text { font: bold 12px Hack, "Source Code Pro", monospace; text-anchor: middle; fill: #404040;}/* Comment text */svg.railroad-diagram text.comment { font: italic 10px Hack, "Source Code Pro", monospace; fill: #404040;}/* The terminal boxes. */svg.railroad-diagram g.terminal rect { stroke-width: 2; stroke: #404040; fill: rgba(200, 200, 200, 1);}svg.railroad-diagram g.non-terminal rect { /* The non-terminal boxes. */ stroke-width: 2; stroke: #404040; fill: rgba(255, 255, 255, 1);}/* Multiple choice text, not working atm. */svg.railroad-diagram text.diagram-text { font-size: 12px Hack, "Source Code Pro", monospace; fill: red;}/* Multiple choice text, not working atm. */svg.railroad-diagram path.diagram-text { stroke-width: 1; stroke: red; fill: red; cursor: help;}
 ]]>
</style></defs></svg>