<?xml version="1.0" encoding="UTF-8" standalone="no"?>
<!DOCTYPE svg PUBLIC "-//W3C//DTD SVG 1.1//EN" "http://www.w3.org/Graphics/SVG/1.1/DTD/svg11.dtd">
<svg class="railroad-diagram" width="786" height="1350" viewBox="0 0 786 1350" id="expr" xmlns="http://www.w3.org/2000/svg" xmlns:xlink="http://www.w3.org/1999/xlink"><g transform="translate(.5 .5)"><g><path d="M20 37v20m0 -10h20"></path></g><g><path d="M40 47h0"></path><path d="M746 47h0"></path><path d="M40 47h20"></path><g><path d="M60 47h210"></path><g><path d="M270 47h10"></path><path d="M506 47h10"></path><g class="non-terminal "><path d="M280 47h0"></path><path d="M359.5 47h0"></path><rect x="280" y="36" width="79.5" height="22" rx="10" ry="10"></rect><text x="319.75" y="51">literal</text></g><path d="M359.5 47h10"></path><g><path d="M369.5 47h0"></path><path d="M506 47h0"></path><path d="M369.5 47a10 10 0 0 0 10 -10v-7a10 10 0 0 1 10 -10"></path><g><path d="M389.5 20h96.5"></path></g><path d="M486 20a10 10 0 0 1 10 10v7a10 10 0 0 0 10 10"></path><path d="M369.5 47h20"></path><g class="non-terminal "><path d="M389.5 47h0"></path><path d="M486 47h0"></path><rect x="389.5" y="36" width="96.5" height="22" rx="10" ry="10"></rect><text x="437.75" y="51">type_cast</text></g><path d="M486 47h20"></path></g></g><path d="M516 47h210"></path></g><path d="M726 47h20"></path><path d="M40 47a10 10 0 0 1 10 10v34a10 10 0 0 0 10 10"></path><g><path d="M60 101h205.75"></path><g><path d="M265.75 101h10"></path><path d="M510.25 101h10"></path><g class="non-terminal "><path d="M275.75 101h0"></path><path d="M363.75 101h0"></path><rect x="275.75" y="90" width="88" height="22" rx="10" ry="10"></rect><text x="319.75" y="105">variable</text></g><path d="M363.75 101h10"></path><g><path d="M373.75 101h0"></path><path d="M510.25 101h0"></path><path d="M373.75 101a10 10 0 0 0 10 -10v-7a10 10 0 0 1 10 -10"></path><g><path d="M393.75 74h96.5"></path></g><path d="M490.25 74a10 10 0 0 1 10 10v7a10 10 0 0 0 10 10"></path><path d="M373.75 101h20"></path><g class="non-terminal "><path d="M393.75 101h0"></path><path d="M490.25 101h0"></path><rect x="393.75" y="90" width="96.5" height="22" rx="10" ry="10"></rect><text x="442" y="105">type_cast</text></g><path d="M490.25 101h20"></path></g></g><path d="M520.25 101h205.75"></path></g><path d="M726 101a10 10 0 0 0 10 -10v-34a10 10 0 0 1 10 -10"></path><path d="M40 47a10 10 0 0 1 10 10v88a10 10 0 0 0 10 10"></path><g><path d="M60 155h197.25"></path><g><path d="M257.25 155h10"></path><path d="M518.75 155h10"></path><g class="non-terminal "><path d="M267.25 155h0"></path><path d="M372.25 155h0"></path><rect x="267.25" y="144" width="105" height="22" rx="10" ry="10"></rect><text x="319.75" y="159">column_ref</text></g><path d="M372.25 155h10"></path><g><path d="M382.25 155h0"></path><path d="M518.75 155h0"></path><path d="M382.25 155a10 10 0 0 0 10 -10v-7a10 10 0 0 1 10 -10"></path><g><path d="M402.25 128h96.5"></path></g><path d="M498.75 128a10 10 0 0 1 10 10v7a10 10 0 0 0 10 10"></path><path d="M382.25 155h20"></path><g class="non-terminal "><path d="M402.25 155h0"></path><path d="M498.75 155h0"></path><rect x="402.25" y="144" width="96.5" height="22" rx="10" ry="10"></rect><text x="450.5" y="159">type_cast</text></g><path d="M498.75 155h20"></path></g></g><path d="M528.75 155h197.25"></path></g><path d="M726 155a10 10 0 0 0 10 -10v-88a10 10 0 0 1 10 -10"></path><path d="M40 47a10 10 0 0 1 10 10v126a10 10 0 0 0 10 10"></path><g><path d="M60 193h182.75"></path><g><path d="M242.75 193h10"></path><path d="M533.25 193h10"></path><g class="comment "><path d="M252.75 193h0"></path><path d="M353.75 193h0"></path><text x="303.25" y="198" class="comment">&lt;assoc=right&gt;</text></g><path d="M353.75 193h10"></path><g><path d="M363.75 193h0"></path><path d="M469.25 193h0"></path><path d="M363.75 193h20"></path><g><path d="M383.75 193h0"></path><g><path d="M383.75 193h10"></path><path d="M439.25 193h10"></path><g class="terminal "><path d="M393.75 193h0"></path><path d="M439.25 193h0"></path><rect x="393.75" y="182" width="45.5" height="22"></rect><text x="416.5" y="197">'-'</text></g></g><path d="M449.25 193h0"></path></g><path d="M449.25 193h20"></path><path d="M363.75 193a10 10 0 0 1 10 10v18a10 10 0 0 0 10 10"></path><g><path d="M383.75 231h0"></path><g><path d="M383.75 231h10"></path><path d="M439.25 231h10"></path><g class="terminal "><path d="M393.75 231h0"></path><path d="M439.25 231h0"></path><rect x="393.75" y="220" width="45.5" height="22"></rect><text x="416.5" y="235">'+'</text></g></g><path d="M449.25 231h0"></path></g><path d="M449.25 231a10 10 0 0 0 10 -10v-18a10 10 0 0 1 10 -10"></path></g><path d="M469.25 193h10"></path><g class="non-terminal "><path d="M479.25 193h0"></path><path d="M533.25 193h0"></path><rect x="479.25" y="182" width="54" height="22" rx="10" ry="10"></rect><text x="506.25" y="197">expr</text></g></g><path d="M543.25 193h182.75"></path></g><path d="M726 193a10 10 0 0 0 10 -10v-126a10 10 0 0 1 10 -10"></path><path d="M40 47a10 10 0 0 1 10 10v202a10 10 0 0 0 10 10"></path><g><path d="M60 269h158.25"></path><g><path d="M218.25 269h10"></path><path d="M557.75 269h10"></path><g class="non-terminal "><path d="M228.25 269h0"></path><path d="M282.25 269h0"></path><rect x="228.25" y="258" width="54" height="22" rx="10" ry="10"></rect><text x="255.25" y="273">expr</text></g><path d="M282.25 269h10"></path><path d="M292.25 269h10"></path><g class="terminal "><path d="M302.25 269h0"></path><path d="M398.75 269h0"></path><rect x="302.25" y="258" width="96.5" height="22"></rect><text x="350.5" y="273">'COLLATE'</text></g><path d="M398.75 269h10"></path><path d="M408.75 269h10"></path><g class="non-terminal "><path d="M418.75 269h0"></path><path d="M557.75 269h0"></path><rect x="418.75" y="258" width="139" height="22" rx="10" ry="10"></rect><text x="488.25" y="273">collation_name</text></g></g><path d="M567.75 269h158.25"></path></g><path d="M726 269a10 10 0 0 0 10 -10v-202a10 10 0 0 1 10 -10"></path><path d="M40 47a10 10 0 0 1 10 10v256a10 10 0 0 0 10 10"></path><g><path d="M60 323h157.25"></path><g><path d="M217.25 323h10"></path><path d="M558.75 323h10"></path><g class="terminal "><path d="M227.25 323h0"></path><path d="M272.75 323h0"></path><rect x="227.25" y="312" width="45.5" height="22"></rect><text x="250" y="327">'('</text></g><path d="M272.75 323h10"></path><path d="M282.75 323h10"></path><g class="non-terminal "><path d="M292.75 323h0"></path><path d="M346.75 323h0"></path><rect x="292.75" y="312" width="54" height="22" rx="10" ry="10"></rect><text x="319.75" y="327">expr</text></g><path d="M346.75 323h10"></path><path d="M356.75 323h10"></path><g class="terminal "><path d="M366.75 323h0"></path><path d="M412.25 323h0"></path><rect x="366.75" y="312" width="45.5" height="22"></rect><text x="389.5" y="327">')'</text></g><path d="M412.25 323h10"></path><g><path d="M422.25 323h0"></path><path d="M558.75 323h0"></path><path d="M422.25 323a10 10 0 0 0 10 -10v-7a10 10 0 0 1 10 -10"></path><g><path d="M442.25 296h96.5"></path></g><path d="M538.75 296a10 10 0 0 1 10 10v7a10 10 0 0 0 10 10"></path><path d="M422.25 323h20"></path><g class="non-terminal "><path d="M442.25 323h0"></path><path d="M538.75 323h0"></path><rect x="442.25" y="312" width="96.5" height="22" rx="10" ry="10"></rect><text x="490.5" y="327">type_cast</text></g><path d="M538.75 323h20"></path></g></g><path d="M568.75 323h157.25"></path></g><path d="M726 323a10 10 0 0 0 10 -10v-256a10 10 0 0 1 10 -10"></path><path d="M40 47a10 10 0 0 1 10 10v326a10 10 0 0 0 10 10"></path><g><path d="M60 393h93.75"></path><g><path d="M153.75 393h10"></path><path d="M622.25 393h10"></path><g><path d="M163.75 393h0"></path><path d="M524.25 393h0"></path><path d="M163.75 393a10 10 0 0 0 10 -10v-23a10 10 0 0 1 10 -10"></path><g><path d="M183.75 350h320.5"></path></g><path d="M504.25 350a10 10 0 0 1 10 10v23a10 10 0 0 0 10 10"></path><path d="M163.75 393h20"></path><g><path d="M183.75 393h0"></path><path d="M504.25 393h0"></path><path d="M183.75 393h20"></path><g><path d="M203.75 393h0"></path><g><path d="M203.75 393h10"></path><path d="M474.25 393h10"></path><g><path d="M213.75 393h0"></path><path d="M376.25 393h0"></path><path d="M213.75 393a10 10 0 0 0 10 -10v-7a10 10 0 0 1 10 -10"></path><g><path d="M233.75 366h122.5"></path></g><path d="M356.25 366a10 10 0 0 1 10 10v7a10 10 0 0 0 10 10"></path><path d="M213.75 393h20"></path><g><path d="M233.75 393h0"></path><path d="M356.25 393h0"></path><path d="M233.75 393h20"></path><g><path d="M253.75 393h0"></path><g><path d="M253.75 393h10"></path><path d="M326.25 393h10"></path><g class="terminal "><path d="M263.75 393h0"></path><path d="M326.25 393h0"></path><rect x="263.75" y="382" width="62.5" height="22"></rect><text x="295" y="397">'NOT'</text></g></g><path d="M336.25 393h0"></path></g><path d="M336.25 393h20"></path></g><path d="M356.25 393h20"></path></g><path d="M376.25 393h10"></path><g class="terminal "><path d="M386.25 393h0"></path><path d="M474.25 393h0"></path><rect x="386.25" y="382" width="88" height="22"></rect><text x="430.25" y="397">'EXISTS'</text></g></g><path d="M484.25 393h0"></path></g><path d="M484.25 393h20"></path></g><path d="M504.25 393h20"></path></g><path d="M524.25 393h10"></path><g class="non-terminal "><path d="M534.25 393h0"></path><path d="M622.25 393h0"></path><rect x="534.25" y="382" width="88" height="22" rx="10" ry="10"></rect><text x="578.25" y="397">subquery</text></g></g><path d="M632.25 393h93.75"></path></g><path d="M726 393a10 10 0 0 0 10 -10v-326a10 10 0 0 1 10 -10"></path><path d="M40 47a10 10 0 0 1 10 10v380a10 10 0 0 0 10 10"></path><g><path d="M60 447h0"></path><g><path d="M60 447h10"></path><path d="M716 447h10"></path><g class="terminal "><path d="M70 447h0"></path><path d="M141 447h0"></path><rect x="70" y="436" width="71" height="22"></rect><text x="105.5" y="451">'CASE'</text></g><path d="M141 447h10"></path><g><path d="M151 447h0"></path><path d="M245 447h0"></path><path d="M151 447a10 10 0 0 0 10 -10v-7a10 10 0 0 1 10 -10"></path><g><path d="M171 420h54"></path></g><path d="M225 420a10 10 0 0 1 10 10v7a10 10 0 0 0 10 10"></path><path d="M151 447h20"></path><g class="non-terminal "><path d="M171 447h0"></path><path d="M225 447h0"></path><rect x="171" y="436" width="54" height="22" rx="10" ry="10"></rect><text x="198" y="451">expr</text></g><path d="M225 447h20"></path></g><path d="M245 447h10"></path><g><path d="M255 447h0"></path><path d="M388.5 447h0"></path><path d="M255 447h10"></path><g class="non-terminal "><path d="M265 447h0"></path><path d="M378.5 447h0"></path><rect x="265" y="436" width="113.5" height="22" rx="10" ry="10"></rect><text x="321.75" y="451">when_clause</text></g><path d="M378.5 447h10"></path><path d="M265 447a10 10 0 0 0 -10 10v7a10 10 0 0 0 10 10"></path><g><path d="M265 474h113.5"></path></g><path d="M378.5 474a10 10 0 0 0 10 -10v-7a10 10 0 0 0 -10 -10"></path></g><path d="M388.5 447h10"></path><g><path d="M398.5 447h0"></path><path d="M643.5 447h0"></path><path d="M398.5 447a10 10 0 0 0 10 -10v-7a10 10 0 0 1 10 -10"></path><g><path d="M418.5 420h205"></path></g><path d="M623.5 420a10 10 0 0 1 10 10v7a10 10 0 0 0 10 10"></path><path d="M398.5 447h20"></path><g><path d="M418.5 447h0"></path><path d="M623.5 447h0"></path><path d="M418.5 447h20"></path><g><path d="M438.5 447h0"></path><g><path d="M438.5 447h10"></path><path d="M593.5 447h10"></path><g class="terminal "><path d="M448.5 447h0"></path><path d="M519.5 447h0"></path><rect x="448.5" y="436" width="71" height="22"></rect><text x="484" y="451">'ELSE'</text></g><path d="M519.5 447h10"></path><path d="M529.5 447h10"></path><g class="non-terminal "><path d="M539.5 447h0"></path><path d="M593.5 447h0"></path><rect x="539.5" y="436" width="54" height="22" rx="10" ry="10"></rect><text x="566.5" y="451">expr</text></g></g><path d="M603.5 447h0"></path></g><path d="M603.5 447h20"></path></g><path d="M623.5 447h20"></path></g><path d="M643.5 447h10"></path><g class="terminal "><path d="M653.5 447h0"></path><path d="M716 447h0"></path><rect x="653.5" y="436" width="62.5" height="22"></rect><text x="684.75" y="451">'END'</text></g></g><path d="M726 447h0"></path></g><path d="M726 447a10 10 0 0 0 10 -10v-380a10 10 0 0 1 10 -10"></path><path d="M40 47a10 10 0 0 1 10 10v434a10 10 0 0 0 10 10"></path><g><path d="M60 501h209.25"></path><g><path d="M269.25 501h10"></path><path d="M506.75 501h10"></path><g class="terminal "><path d="M279.25 501h0"></path><path d="M324.75 501h0"></path><rect x="279.25" y="490" width="45.5" height="22"></rect><text x="302" y="505">'('</text></g><path d="M324.75 501h10"></path><path d="M334.75 501h10"></path><g class="non-terminal "><path d="M344.75 501h0"></path><path d="M441.25 501h0"></path><rect x="344.75" y="490" width="96.5" height="22" rx="10" ry="10"></rect><text x="393" y="505">expr_list</text></g><path d="M441.25 501h10"></path><path d="M451.25 501h10"></path><g class="terminal "><path d="M461.25 501h0"></path><path d="M506.75 501h0"></path><rect x="461.25" y="490" width="45.5" height="22"></rect><text x="484" y="505">')'</text></g></g><path d="M516.75 501h209.25"></path></g><path d="M726 501a10 10 0 0 0 10 -10v-434a10 10 0 0 1 10 -10"></path><path d="M40 47a10 10 0 0 1 10 10v488a10 10 0 0 0 10 10"></path><g><path d="M60 555h184.5"></path><g><path d="M244.5 555h10"></path><path d="M531.5 555h10"></path><g class="non-terminal "><path d="M254.5 555h0"></path><path d="M385 555h0"></path><rect x="254.5" y="544" width="130.5" height="22" rx="10" ry="10"></rect><text x="319.75" y="559">function_call</text></g><path d="M385 555h10"></path><g><path d="M395 555h0"></path><path d="M531.5 555h0"></path><path d="M395 555a10 10 0 0 0 10 -10v-7a10 10 0 0 1 10 -10"></path><g><path d="M415 528h96.5"></path></g><path d="M511.5 528a10 10 0 0 1 10 10v7a10 10 0 0 0 10 10"></path><path d="M395 555h20"></path><g class="non-terminal "><path d="M415 555h0"></path><path d="M511.5 555h0"></path><rect x="415" y="544" width="96.5" height="22" rx="10" ry="10"></rect><text x="463.25" y="559">type_cast</text></g><path d="M511.5 555h20"></path></g></g><path d="M541.5 555h184.5"></path></g><path d="M726 555a10 10 0 0 0 10 -10v-488a10 10 0 0 1 10 -10"></path><path d="M40 47a10 10 0 0 1 10 10v526a10 10 0 0 0 10 10"></path><g><path d="M60 593h206.25"></path><g><path d="M266.25 593h10"></path><path d="M509.75 593h10"></path><g class="non-terminal "><path d="M276.25 593h0"></path><path d="M330.25 593h0"></path><rect x="276.25" y="582" width="54" height="22" rx="10" ry="10"></rect><text x="303.25" y="597">expr</text></g><path d="M330.25 593h10"></path><g><path d="M340.25 593h0"></path><path d="M445.75 593h0"></path><path d="M340.25 593h20"></path><g><path d="M360.25 593h0"></path><g><path d="M360.25 593h10"></path><path d="M415.75 593h10"></path><g class="terminal "><path d="M370.25 593h0"></path><path d="M415.75 593h0"></path><rect x="370.25" y="582" width="45.5" height="22"></rect><text x="393" y="597">'*'</text></g></g><path d="M425.75 593h0"></path></g><path d="M425.75 593h20"></path><path d="M340.25 593a10 10 0 0 1 10 10v18a10 10 0 0 0 10 10"></path><g><path d="M360.25 631h0"></path><g><path d="M360.25 631h10"></path><path d="M415.75 631h10"></path><g class="terminal "><path d="M370.25 631h0"></path><path d="M415.75 631h0"></path><rect x="370.25" y="620" width="45.5" height="22"></rect><text x="393" y="635">'/'</text></g></g><path d="M425.75 631h0"></path></g><path d="M425.75 631a10 10 0 0 0 10 -10v-18a10 10 0 0 1 10 -10"></path><path d="M340.25 593a10 10 0 0 1 10 10v56a10 10 0 0 0 10 10"></path><g><path d="M360.25 669h0"></path><g><path d="M360.25 669h10"></path><path d="M415.75 669h10"></path><g class="terminal "><path d="M370.25 669h0"></path><path d="M415.75 669h0"></path><rect x="370.25" y="658" width="45.5" height="22"></rect><text x="393" y="673">'%'</text></g></g><path d="M425.75 669h0"></path></g><path d="M425.75 669a10 10 0 0 0 10 -10v-56a10 10 0 0 1 10 -10"></path></g><path d="M445.75 593h10"></path><g class="non-terminal "><path d="M455.75 593h0"></path><path d="M509.75 593h0"></path><rect x="455.75" y="582" width="54" height="22" rx="10" ry="10"></rect><text x="482.75" y="597">expr</text></g></g><path d="M519.75 593h206.25"></path></g><path d="M726 593a10 10 0 0 0 10 -10v-526a10 10 0 0 1 10 -10"></path><path d="M40 47a10 10 0 0 1 10 10v640a10 10 0 0 0 10 10"></path><g><path d="M60 707h206.25"></path><g><path d="M266.25 707h10"></path><path d="M509.75 707h10"></path><g class="non-terminal "><path d="M276.25 707h0"></path><path d="M330.25 707h0"></path><rect x="276.25" y="696" width="54" height="22" rx="10" ry="10"></rect><text x="303.25" y="711">expr</text></g><path d="M330.25 707h10"></path><g><path d="M340.25 707h0"></path><path d="M445.75 707h0"></path><path d="M340.25 707h20"></path><g><path d="M360.25 707h0"></path><g><path d="M360.25 707h10"></path><path d="M415.75 707h10"></path><g class="terminal "><path d="M370.25 707h0"></path><path d="M415.75 707h0"></path><rect x="370.25" y="696" width="45.5" height="22"></rect><text x="393" y="711">'+'</text></g></g><path d="M425.75 707h0"></path></g><path d="M425.75 707h20"></path><path d="M340.25 707a10 10 0 0 1 10 10v18a10 10 0 0 0 10 10"></path><g><path d="M360.25 745h0"></path><g><path d="M360.25 745h10"></path><path d="M415.75 745h10"></path><g class="terminal "><path d="M370.25 745h0"></path><path d="M415.75 745h0"></path><rect x="370.25" y="734" width="45.5" height="22"></rect><text x="393" y="749">'-'</text></g></g><path d="M425.75 745h0"></path></g><path d="M425.75 745a10 10 0 0 0 10 -10v-18a10 10 0 0 1 10 -10"></path></g><path d="M445.75 707h10"></path><g class="non-terminal "><path d="M455.75 707h0"></path><path d="M509.75 707h0"></path><rect x="455.75" y="696" width="54" height="22" rx="10" ry="10"></rect><text x="482.75" y="711">expr</text></g></g><path d="M519.75 707h206.25"></path></g><path d="M726 707a10 10 0 0 0 10 -10v-640a10 10 0 0 1 10 -10"></path><path d="M40 47a10 10 0 0 1 10 10v732a10 10 0 0 0 10 10"></path><g><path d="M60 799h153.75"></path><g><path d="M213.75 799h10"></path><path d="M562.25 799h10"></path><g class="non-terminal "><path d="M223.75 799h0"></path><path d="M277.75 799h0"></path><rect x="223.75" y="788" width="54" height="22" rx="10" ry="10"></rect><text x="250.75" y="803">expr</text></g><path d="M277.75 799h10"></path><g><path d="M287.75 799h0"></path><path d="M390.25 799h0"></path><path d="M287.75 799a10 10 0 0 0 10 -10v-7a10 10 0 0 1 10 -10"></path><g><path d="M307.75 772h62.5"></path></g><path d="M370.25 772a10 10 0 0 1 10 10v7a10 10 0 0 0 10 10"></path><path d="M287.75 799h20"></path><g class="terminal "><path d="M307.75 799h0"></path><path d="M370.25 799h0"></path><rect x="307.75" y="788" width="62.5" height="22"></rect><text x="339" y="803">'NOT'</text></g><path d="M370.25 799h20"></path></g><path d="M390.25 799h10"></path><g class="terminal "><path d="M400.25 799h0"></path><path d="M454.25 799h0"></path><rect x="400.25" y="788" width="54" height="22"></rect><text x="427.25" y="803">'IN'</text></g><path d="M454.25 799h10"></path><path d="M464.25 799h10"></path><g class="non-terminal "><path d="M474.25 799h0"></path><path d="M562.25 799h0"></path><rect x="474.25" y="788" width="88" height="22" rx="10" ry="10"></rect><text x="518.25" y="803">subquery</text></g></g><path d="M572.25 799h153.75"></path></g><path d="M726 799a10 10 0 0 0 10 -10v-732a10 10 0 0 1 10 -10"></path><path d="M40 47a10 10 0 0 1 10 10v786a10 10 0 0 0 10 10"></path><g><path d="M60 853h84"></path><g><path d="M144 853h10"></path><path d="M632 853h10"></path><g class="non-terminal "><path d="M154 853h0"></path><path d="M208 853h0"></path><rect x="154" y="842" width="54" height="22" rx="10" ry="10"></rect><text x="181" y="857">expr</text></g><path d="M208 853h10"></path><g><path d="M218 853h0"></path><path d="M320.5 853h0"></path><path d="M218 853a10 10 0 0 0 10 -10v-7a10 10 0 0 1 10 -10"></path><g><path d="M238 826h62.5"></path></g><path d="M300.5 826a10 10 0 0 1 10 10v7a10 10 0 0 0 10 10"></path><path d="M218 853h20"></path><g class="terminal "><path d="M238 853h0"></path><path d="M300.5 853h0"></path><rect x="238" y="842" width="62.5" height="22"></rect><text x="269.25" y="857">'NOT'</text></g><path d="M300.5 853h20"></path></g><path d="M320.5 853h10"></path><g class="terminal "><path d="M330.5 853h0"></path><path d="M384.5 853h0"></path><rect x="330.5" y="842" width="54" height="22"></rect><text x="357.5" y="857">'IN'</text></g><path d="M384.5 853h10"></path><path d="M394.5 853h10"></path><g class="terminal "><path d="M404.5 853h0"></path><path d="M450 853h0"></path><rect x="404.5" y="842" width="45.5" height="22"></rect><text x="427.25" y="857">'('</text></g><path d="M450 853h10"></path><path d="M460 853h10"></path><g class="non-terminal "><path d="M470 853h0"></path><path d="M566.5 853h0"></path><rect x="470" y="842" width="96.5" height="22" rx="10" ry="10"></rect><text x="518.25" y="857">expr_list</text></g><path d="M566.5 853h10"></path><path d="M576.5 853h10"></path><g class="terminal "><path d="M586.5 853h0"></path><path d="M632 853h0"></path><rect x="586.5" y="842" width="45.5" height="22"></rect><text x="609.25" y="857">')'</text></g></g><path d="M642 853h84"></path></g><path d="M726 853a10 10 0 0 0 10 -10v-786a10 10 0 0 1 10 -10"></path><path d="M40 47a10 10 0 0 1 10 10v840a10 10 0 0 0 10 10"></path><g><path d="M60 907h71.25"></path><g><path d="M131.25 907h10"></path><path d="M644.75 907h10"></path><g class="non-terminal "><path d="M141.25 907h0"></path><path d="M195.25 907h0"></path><rect x="141.25" y="896" width="54" height="22" rx="10" ry="10"></rect><text x="168.25" y="911">expr</text></g><path d="M195.25 907h10"></path><g><path d="M205.25 907h0"></path><path d="M307.75 907h0"></path><path d="M205.25 907a10 10 0 0 0 10 -10v-7a10 10 0 0 1 10 -10"></path><g><path d="M225.25 880h62.5"></path></g><path d="M287.75 880a10 10 0 0 1 10 10v7a10 10 0 0 0 10 10"></path><path d="M205.25 907h20"></path><g class="terminal "><path d="M225.25 907h0"></path><path d="M287.75 907h0"></path><rect x="225.25" y="896" width="62.5" height="22"></rect><text x="256.5" y="911">'NOT'</text></g><path d="M287.75 907h20"></path></g><path d="M307.75 907h10"></path><g class="terminal "><path d="M317.75 907h0"></path><path d="M414.25 907h0"></path><rect x="317.75" y="896" width="96.5" height="22"></rect><text x="366" y="911">'BETWEEN'</text></g><path d="M414.25 907h10"></path><path d="M424.25 907h10"></path><g class="non-terminal "><path d="M434.25 907h0"></path><path d="M488.25 907h0"></path><rect x="434.25" y="896" width="54" height="22" rx="10" ry="10"></rect><text x="461.25" y="911">expr</text></g><path d="M488.25 907h10"></path><path d="M498.25 907h10"></path><g class="terminal "><path d="M508.25 907h0"></path><path d="M570.75 907h0"></path><rect x="508.25" y="896" width="62.5" height="22"></rect><text x="539.5" y="911">'AND'</text></g><path d="M570.75 907h10"></path><path d="M580.75 907h10"></path><g class="non-terminal "><path d="M590.75 907h0"></path><path d="M644.75 907h0"></path><rect x="590.75" y="896" width="54" height="22" rx="10" ry="10"></rect><text x="617.75" y="911">expr</text></g></g><path d="M654.75 907h71.25"></path></g><path d="M726 907a10 10 0 0 0 10 -10v-840a10 10 0 0 1 10 -10"></path><path d="M40 47a10 10 0 0 1 10 10v894a10 10 0 0 0 10 10"></path><g><path d="M60 961h26.25"></path><g><path d="M86.25 961h10"></path><path d="M689.75 961h10"></path><g class="non-terminal "><path d="M96.25 961h0"></path><path d="M150.25 961h0"></path><rect x="96.25" y="950" width="54" height="22" rx="10" ry="10"></rect><text x="123.25" y="965">expr</text></g><path d="M150.25 961h10"></path><g><path d="M160.25 961h0"></path><path d="M262.75 961h0"></path><path d="M160.25 961a10 10 0 0 0 10 -10v-7a10 10 0 0 1 10 -10"></path><g><path d="M180.25 934h62.5"></path></g><path d="M242.75 934a10 10 0 0 1 10 10v7a10 10 0 0 0 10 10"></path><path d="M160.25 961h20"></path><g class="terminal "><path d="M180.25 961h0"></path><path d="M242.75 961h0"></path><rect x="180.25" y="950" width="62.5" height="22"></rect><text x="211.5" y="965">'NOT'</text></g><path d="M242.75 961h20"></path></g><path d="M262.75 961h10"></path><g class="terminal "><path d="M272.75 961h0"></path><path d="M343.75 961h0"></path><rect x="272.75" y="950" width="71" height="22"></rect><text x="308.25" y="965">'LIKE'</text></g><path d="M343.75 961h10"></path><path d="M353.75 961h10"></path><g class="non-terminal "><path d="M363.75 961h0"></path><path d="M417.75 961h0"></path><rect x="363.75" y="950" width="54" height="22" rx="10" ry="10"></rect><text x="390.75" y="965">expr</text></g><path d="M417.75 961h10"></path><g><path d="M427.75 961h0"></path><path d="M689.75 961h0"></path><path d="M427.75 961a10 10 0 0 0 10 -10v-7a10 10 0 0 1 10 -10"></path><g><path d="M447.75 934h222"></path></g><path d="M669.75 934a10 10 0 0 1 10 10v7a10 10 0 0 0 10 10"></path><path d="M427.75 961h20"></path><g><path d="M447.75 961h0"></path><path d="M669.75 961h0"></path><path d="M447.75 961h20"></path><g><path d="M467.75 961h0"></path><g><path d="M467.75 961h10"></path><path d="M639.75 961h10"></path><g class="terminal "><path d="M477.75 961h0"></path><path d="M565.75 961h0"></path><rect x="477.75" y="950" width="88" height="22"></rect><text x="521.75" y="965">'ESCAPE'</text></g><path d="M565.75 961h10"></path><path d="M575.75 961h10"></path><g class="non-terminal "><path d="M585.75 961h0"></path><path d="M639.75 961h0"></path><rect x="585.75" y="950" width="54" height="22" rx="10" ry="10"></rect><text x="612.75" y="965">expr</text></g></g><path d="M649.75 961h0"></path></g><path d="M649.75 961h20"></path></g><path d="M669.75 961h20"></path></g></g><path d="M699.75 961h26.25"></path></g><path d="M726 961a10 10 0 0 0 10 -10v-894a10 10 0 0 1 10 -10"></path><path d="M40 47a10 10 0 0 1 10 10v932a10 10 0 0 0 10 10"></path><g><path d="M60 999h162.5"></path><g><path d="M222.5 999h10"></path><path d="M553.5 999h10"></path><g class="non-terminal "><path d="M232.5 999h0"></path><path d="M286.5 999h0"></path><rect x="232.5" y="988" width="54" height="22" rx="10" ry="10"></rect><text x="259.5" y="1003">expr</text></g><path d="M286.5 999h10"></path><path d="M296.5 999h10"></path><g class="non-terminal "><path d="M306.5 999h0"></path><path d="M479.5 999h0"></path><rect x="306.5" y="988" width="173" height="22" rx="10" ry="10"></rect><text x="393" y="1003">comparisonOperator</text></g><path d="M479.5 999h10"></path><path d="M489.5 999h10"></path><g class="non-terminal "><path d="M499.5 999h0"></path><path d="M553.5 999h0"></path><rect x="499.5" y="988" width="54" height="22" rx="10" ry="10"></rect><text x="526.5" y="1003">expr</text></g></g><path d="M563.5 999h162.5"></path></g><path d="M726 999a10 10 0 0 0 10 -10v-932a10 10 0 0 1 10 -10"></path><path d="M40 47a10 10 0 0 1 10 10v986a10 10 0 0 0 10 10"></path><g><path d="M60 1053h37.75"></path><g><path d="M97.75 1053h10"></path><path d="M678.25 1053h10"></path><g class="non-terminal "><path d="M107.75 1053h0"></path><path d="M161.75 1053h0"></path><rect x="107.75" y="1042" width="54" height="22" rx="10" ry="10"></rect><text x="134.75" y="1057">expr</text></g><path d="M161.75 1053h10"></path><path d="M171.75 1053h10"></path><g class="terminal "><path d="M181.75 1053h0"></path><path d="M235.75 1053h0"></path><rect x="181.75" y="1042" width="54" height="22"></rect><text x="208.75" y="1057">'IS'</text></g><path d="M235.75 1053h10"></path><g><path d="M245.75 1053h0"></path><path d="M348.25 1053h0"></path><path d="M245.75 1053a10 10 0 0 0 10 -10v-7a10 10 0 0 1 10 -10"></path><g><path d="M265.75 1026h62.5"></path></g><path d="M328.25 1026a10 10 0 0 1 10 10v7a10 10 0 0 0 10 10"></path><path d="M245.75 1053h20"></path><g class="terminal "><path d="M265.75 1053h0"></path><path d="M328.25 1053h0"></path><rect x="265.75" y="1042" width="62.5" height="22"></rect><text x="297" y="1057">'NOT'</text></g><path d="M328.25 1053h20"></path></g><g><path d="M348.25 1053h0"></path><path d="M678.25 1053h0"></path><path d="M348.25 1053h20"></path><g><path d="M368.25 1053h0"></path><g><path d="M368.25 1053h10"></path><path d="M648.25 1053h10"></path><g class="terminal "><path d="M378.25 1053h0"></path><path d="M483.25 1053h0"></path><rect x="378.25" y="1042" width="105" height="22"></rect><text x="430.75" y="1057">'DISTINCT'</text></g><path d="M483.25 1053h10"></path><path d="M493.25 1053h10"></path><g class="terminal "><path d="M503.25 1053h0"></path><path d="M574.25 1053h0"></path><rect x="503.25" y="1042" width="71" height="22"></rect><text x="538.75" y="1057">'FROM'</text></g><path d="M574.25 1053h10"></path><path d="M584.25 1053h10"></path><g class="non-terminal "><path d="M594.25 1053h0"></path><path d="M648.25 1053h0"></path><rect x="594.25" y="1042" width="54" height="22" rx="10" ry="10"></rect><text x="621.25" y="1057">expr</text></g></g><path d="M658.25 1053h0"></path></g><path d="M658.25 1053h20"></path><path d="M348.25 1053a10 10 0 0 1 10 10v18a10 10 0 0 0 10 10"></path><g><path d="M368.25 1091h69.75"></path><g><path d="M438 1091h10"></path><path d="M578.5 1091h10"></path><g class="non-terminal "><path d="M448 1091h0"></path><path d="M578.5 1091h0"></path><rect x="448" y="1080" width="130.5" height="22" rx="10" ry="10"></rect><text x="513.25" y="1095">boolean_value</text></g></g><path d="M588.5 1091h69.75"></path></g><path d="M658.25 1091a10 10 0 0 0 10 -10v-18a10 10 0 0 1 10 -10"></path><path d="M348.25 1053a10 10 0 0 1 10 10v56a10 10 0 0 0 10 10"></path><g><path d="M368.25 1129h99.5"></path><g><path d="M467.75 1129h10"></path><path d="M548.75 1129h10"></path><g class="terminal "><path d="M477.75 1129h0"></path><path d="M548.75 1129h0"></path><rect x="477.75" y="1118" width="71" height="22"></rect><text x="513.25" y="1133">'NULL'</text></g></g><path d="M558.75 1129h99.5"></path></g><path d="M658.25 1129a10 10 0 0 0 10 -10v-56a10 10 0 0 1 10 -10"></path></g></g><path d="M688.25 1053h37.75"></path></g><path d="M726 1053a10 10 0 0 0 10 -10v-986a10 10 0 0 1 10 -10"></path><path d="M40 47a10 10 0 0 1 10 10v1100a10 10 0 0 0 10 10"></path><g><path d="M60 1167h212.75"></path><g><path d="M272.75 1167h10"></path><path d="M503.25 1167h10"></path><g class="non-terminal "><path d="M282.75 1167h0"></path><path d="M336.75 1167h0"></path><rect x="282.75" y="1156" width="54" height="22" rx="10" ry="10"></rect><text x="309.75" y="1171">expr</text></g><path d="M336.75 1167h10"></path><g><path d="M346.75 1167h0"></path><path d="M503.25 1167h0"></path><path d="M346.75 1167h20"></path><g><path d="M366.75 1167h4.25"></path><g><path d="M371 1167h10"></path><path d="M469 1167h10"></path><g class="terminal "><path d="M381 1167h0"></path><path d="M469 1167h0"></path><rect x="381" y="1156" width="88" height="22"></rect><text x="425" y="1171">'ISNULL'</text></g></g><path d="M479 1167h4.25"></path></g><path d="M483.25 1167h20"></path><path d="M346.75 1167a10 10 0 0 1 10 10v18a10 10 0 0 0 10 10"></path><g><path d="M366.75 1205h0"></path><g><path d="M366.75 1205h10"></path><path d="M473.25 1205h10"></path><g class="terminal "><path d="M376.75 1205h0"></path><path d="M473.25 1205h0"></path><rect x="376.75" y="1194" width="96.5" height="22"></rect><text x="425" y="1209">'NOTNULL'</text></g></g><path d="M483.25 1205h0"></path></g><path d="M483.25 1205a10 10 0 0 0 10 -10v-18a10 10 0 0 1 10 -10"></path></g></g><path d="M513.25 1167h212.75"></path></g><path d="M726 1167a10 10 0 0 0 10 -10v-1100a10 10 0 0 1 10 -10"></path><path d="M40 47a10 10 0 0 1 10 10v1176a10 10 0 0 0 10 10"></path><g><path d="M60 1243h194.25"></path><g><path d="M254.25 1243h10"></path><path d="M521.75 1243h10"></path><g class="comment "><path d="M264.25 1243h0"></path><path d="M365.25 1243h0"></path><text x="314.75" y="1248" class="comment">&lt;assoc=right&gt;</text></g><path d="M365.25 1243h10"></path><path d="M375.25 1243h10"></path><g class="terminal "><path d="M385.25 1243h0"></path><path d="M447.75 1243h0"></path><rect x="385.25" y="1232" width="62.5" height="22"></rect><text x="416.5" y="1247">'NOT'</text></g><path d="M447.75 1243h10"></path><path d="M457.75 1243h10"></path><g class="non-terminal "><path d="M467.75 1243h0"></path><path d="M521.75 1243h0"></path><rect x="467.75" y="1232" width="54" height="22" rx="10" ry="10"></rect><text x="494.75" y="1247">expr</text></g></g><path d="M531.75 1243h194.25"></path></g><path d="M726 1243a10 10 0 0 0 10 -10v-1176a10 10 0 0 1 10 -10"></path><path d="M40 47a10 10 0 0 1 10 10v1214a10 10 0 0 0 10 10"></path><g><path d="M60 1281h217.75"></path><g><path d="M277.75 1281h10"></path><path d="M498.25 1281h10"></path><g class="non-terminal "><path d="M287.75 1281h0"></path><path d="M341.75 1281h0"></path><rect x="287.75" y="1270" width="54" height="22" rx="10" ry="10"></rect><text x="314.75" y="1285">expr</text></g><path d="M341.75 1281h10"></path><path d="M351.75 1281h10"></path><g class="terminal "><path d="M361.75 1281h0"></path><path d="M424.25 1281h0"></path><rect x="361.75" y="1270" width="62.5" height="22"></rect><text x="393" y="1285">'AND'</text></g><path d="M424.25 1281h10"></path><path d="M434.25 1281h10"></path><g class="non-terminal "><path d="M444.25 1281h0"></path><path d="M498.25 1281h0"></path><rect x="444.25" y="1270" width="54" height="22" rx="10" ry="10"></rect><text x="471.25" y="1285">expr</text></g></g><path d="M508.25 1281h217.75"></path></g><path d="M726 1281a10 10 0 0 0 10 -10v-1214a10 10 0 0 1 10 -10"></path><path d="M40 47a10 10 0 0 1 10 10v1252a10 10 0 0 0 10 10"></path><g><path d="M60 1319h222"></path><g><path d="M282 1319h10"></path><path d="M494 1319h10"></path><g class="non-terminal "><path d="M292 1319h0"></path><path d="M346 1319h0"></path><rect x="292" y="1308" width="54" height="22" rx="10" ry="10"></rect><text x="319" y="1323">expr</text></g><path d="M346 1319h10"></path><path d="M356 1319h10"></path><g class="terminal "><path d="M366 1319h0"></path><path d="M420 1319h0"></path><rect x="366" y="1308" width="54" height="22"></rect><text x="393" y="1323">'OR'</text></g><path d="M420 1319h10"></path><path d="M430 1319h10"></path><g class="non-terminal "><path d="M440 1319h0"></path><path d="M494 1319h0"></path><rect x="440" y="1308" width="54" height="22" rx="10" ry="10"></rect><text x="467" y="1323">expr</text></g></g><path d="M504 1319h222"></path></g><path d="M726 1319a10 10 0 0 0 10 -10v-1252a10 10 0 0 1 10 -10"></path></g><path d="M 746 47 h 20 m 0 -10 v 20"></path></g><defs><style type="text/css"><![CDATA[
svg.railroad-diagram path { stroke-width: 2; stroke: darkgray; fill: rgba(0, 0, 0, 0);}/* All text except comments. */svg.railroad-diagram text { font: bold 12px Hack, "Source Code Pro", monospace; text-anchor: middle; fill: #404040;}/* Comment text */svg.railroad-diagram text.comment { font: italic 10px Hack, "Source Code Pro", monospace; fill: #404040;}/* The terminal boxes. */svg.railroad-diagram g.terminal rect { stroke-width: 2; stroke: #404040; fill: rgba(200, 200, 200, 1);}svg.railroad-diagram g.non-terminal rect { /* The non-terminal boxes. */ stroke-width: 2; stroke: #404040; fill: rgba(255, 255, 255, 1);}/* Multiple choice text, not working atm. */svg.railroad-diagram text.diagram-text { font-size: 12px Hack, "Source Code Pro", monospace; fill: red;}/* Multiple choice text, not working atm. */svg.railroad-diagram path.diagram-text { stroke-width: 1; stroke: red; fill: red; cursor: help;}
 ]]>
</style></defs></svg>