<?xml version="1.0" encoding="UTF-8" standalone="no"?>
<!DOCTYPE svg PUBLIC "-//W3C//DTD SVG 1.1//EN" "http://www.w3.org/Graphics/SVG/1.1/DTD/svg11.dtd">
<svg class="railroad-diagram" width="1020" height="148" viewBox="0 0 1020 148" id="function_call" xmlns="http://www.w3.org/2000/svg" xmlns:xlink="http://www.w3.org/1999/xlink"><g transform="translate(.5 .5)"><g><path d="M20 53v20m0 -10h20"></path></g><g><path d="M40 63h0"></path><path d="M980 63h0"></path><path d="M40 63h20"></path><g><path d="M60 63h0"></path><g><path d="M60 63h10"></path><path d="M950 63h10"></path><g class="non-terminal "><path d="M70 63h0"></path><path d="M200.5 63h0"></path><rect x="70" y="52" width="130.5" height="22" rx="10" ry="10"></rect><text x="135.25" y="67">function_name</text></g><path d="M200.5 63h10"></path><path d="M210.5 63h10"></path><g class="terminal "><path d="M220.5 63h0"></path><path d="M266 63h0"></path><rect x="220.5" y="52" width="45.5" height="22"></rect><text x="243.25" y="67">'('</text></g><path d="M266 63h10"></path><g><path d="M276 63h0"></path><path d="M894.5 63h0"></path><path d="M276 63a10 10 0 0 0 10 -10v-23a10 10 0 0 1 10 -10"></path><g><path d="M296 20h578.5"></path></g><path d="M874.5 20a10 10 0 0 1 10 10v23a10 10 0 0 0 10 10"></path><path d="M276 63h20"></path><g><path d="M296 63h0"></path><path d="M874.5 63h0"></path><path d="M296 63h20"></path><g><path d="M316 63h0"></path><g><path d="M316 63h10"></path><path d="M844.5 63h10"></path><g><path d="M326 63h0"></path><path d="M844.5 63h0"></path><path d="M326 63h20"></path><g><path d="M346 63h0"></path><g><path d="M346 63h10"></path><path d="M814.5 63h10"></path><g><path d="M356 63h0"></path><path d="M501 63h0"></path><path d="M356 63a10 10 0 0 0 10 -10v-7a10 10 0 0 1 10 -10"></path><g><path d="M376 36h105"></path></g><path d="M481 36a10 10 0 0 1 10 10v7a10 10 0 0 0 10 10"></path><path d="M356 63h20"></path><g class="terminal "><path d="M376 63h0"></path><path d="M481 63h0"></path><rect x="376" y="52" width="105" height="22"></rect><text x="428.5" y="67">'DISTINCT'</text></g><path d="M481 63h20"></path></g><path d="M501 63h10"></path><g class="non-terminal "><path d="M511 63h0"></path><path d="M565 63h0"></path><rect x="511" y="52" width="54" height="22" rx="10" ry="10"></rect><text x="538" y="67">expr</text></g><path d="M565 63h10"></path><g><path d="M575 63h0"></path><path d="M814.5 63h0"></path><path d="M575 63a10 10 0 0 0 10 -10v-7a10 10 0 0 1 10 -10"></path><g><path d="M595 36h199.5"></path></g><path d="M794.5 36a10 10 0 0 1 10 10v7a10 10 0 0 0 10 10"></path><path d="M575 63h20"></path><g><path d="M595 63h0"></path><path d="M794.5 63h0"></path><path d="M595 63h10"></path><g><path d="M605 63h0"></path><path d="M784.5 63h0"></path><path d="M605 63h20"></path><g><path d="M625 63h0"></path><g><path d="M625 63h10"></path><path d="M754.5 63h10"></path><g class="terminal "><path d="M635 63h0"></path><path d="M680.5 63h0"></path><rect x="635" y="52" width="45.5" height="22"></rect><text x="657.75" y="67">','</text></g><path d="M680.5 63h10"></path><path d="M690.5 63h10"></path><g class="non-terminal "><path d="M700.5 63h0"></path><path d="M754.5 63h0"></path><rect x="700.5" y="52" width="54" height="22" rx="10" ry="10"></rect><text x="727.5" y="67">expr</text></g></g><path d="M764.5 63h0"></path></g><path d="M764.5 63h20"></path></g><path d="M784.5 63h10"></path><path d="M605 63a10 10 0 0 0 -10 10v7a10 10 0 0 0 10 10"></path><g><path d="M605 90h179.5"></path></g><path d="M784.5 90a10 10 0 0 0 10 -10v-7a10 10 0 0 0 -10 -10"></path></g><path d="M794.5 63h20"></path></g></g><path d="M824.5 63h0"></path></g><path d="M824.5 63h20"></path></g></g><path d="M854.5 63h0"></path></g><path d="M854.5 63h20"></path><path d="M296 63a10 10 0 0 1 10 10v34a10 10 0 0 0 10 10"></path><g><path d="M316 117h236.5"></path><g><path d="M552.5 117h10"></path><path d="M608 117h10"></path><g class="terminal "><path d="M562.5 117h0"></path><path d="M608 117h0"></path><rect x="562.5" y="106" width="45.5" height="22"></rect><text x="585.25" y="121">'*'</text></g></g><path d="M618 117h236.5"></path></g><path d="M854.5 117a10 10 0 0 0 10 -10v-34a10 10 0 0 1 10 -10"></path></g><path d="M874.5 63h20"></path></g><path d="M894.5 63h10"></path><g class="terminal "><path d="M904.5 63h0"></path><path d="M950 63h0"></path><rect x="904.5" y="52" width="45.5" height="22"></rect><text x="927.25" y="67">')'</text></g></g><path d="M960 63h0"></path></g><path d="M960 63h20"></path></g><path d="M 980 63 h 20 m 0 -10 v 20"></path></g><defs><style type="text/css"><![CDATA[
svg.railroad-diagram path { stroke-width: 2; stroke: darkgray; fill: rgba(0, 0, 0, 0);}/* All text except comments. */svg.railroad-diagram text { font: bold 12px Hack, "Source Code Pro", monospace; text-anchor: middle; fill: #404040;}/* Comment text */svg.railroad-diagram text.comment { font: italic 10px Hack, "Source Code Pro", monospace; fill: #404040;}/* The terminal boxes. */svg.railroad-diagram g.terminal rect { stroke-width: 2; stroke: #404040; fill: rgba(200, 200, 200, 1);}svg.railroad-diagram g.non-terminal rect { /* The non-terminal boxes. */ stroke-width: 2; stroke: #404040; fill: rgba(255, 255, 255, 1);}/* Multiple choice text, not working atm. */svg.railroad-diagram text.diagram-text { font-size: 12px Hack, "Source Code Pro", monospace; fill: red;}/* Multiple choice text, not working atm. */svg.railroad-diagram path.diagram-text { stroke-width: 1; stroke: red; fill: red; cursor: help;}
 ]]>
</style></defs></svg>