<?xml version="1.0" encoding="UTF-8" standalone="no"?>
<!DOCTYPE svg PUBLIC "-//W3C//DTD SVG 1.1//EN" "http://www.w3.org/Graphics/SVG/1.1/DTD/svg11.dtd">
<svg class="railroad-diagram" width="236.5" height="134" viewBox="0 0 236.5 134" id="function_keyword" xmlns="http://www.w3.org/2000/svg" xmlns:xlink="http://www.w3.org/1999/xlink"><g transform="translate(.5 .5)"><g><path d="M20 20v20m0 -10h20"></path></g><g><path d="M40 30h0"></path><path d="M196.5 30h0"></path><path d="M40 30h20"></path><g><path d="M60 30h4.75"></path><g><path d="M64.75 30h10"></path><path d="M161.75 30h10"></path><g class="comment rrd-warning"><path d="M74.75 30h0"></path><path d="M161.75 30h0"></path><text x="118.25" y="35" class="comment">&lt;empty alt&gt;</text></g></g><path d="M171.75 30h4.75"></path></g><path d="M176.5 30h20"></path><path d="M40 30a10 10 0 0 1 10 10v15a10 10 0 0 0 10 10"></path><g><path d="M60 65h12.75"></path><g><path d="M72.75 65h10"></path><path d="M153.75 65h10"></path><g class="terminal "><path d="M82.75 65h0"></path><path d="M153.75 65h0"></path><rect x="82.75" y="54" width="71" height="22"></rect><text x="118.25" y="69">'LIKE'</text></g></g><path d="M163.75 65h12.75"></path></g><path d="M176.5 65a10 10 0 0 0 10 -10v-15a10 10 0 0 1 10 -10"></path><path d="M40 30a10 10 0 0 1 10 10v53a10 10 0 0 0 10 10"></path><g><path d="M60 103h0"></path><g><path d="M60 103h10"></path><path d="M166.5 103h10"></path><g class="terminal "><path d="M70 103h0"></path><path d="M166.5 103h0"></path><rect x="70" y="92" width="96.5" height="22"></rect><text x="118.25" y="107">'REPLACE'</text></g></g><path d="M176.5 103h0"></path></g><path d="M176.5 103a10 10 0 0 0 10 -10v-53a10 10 0 0 1 10 -10"></path></g><path d="M 196.5 30 h 20 m 0 -10 v 20"></path></g><defs><style type="text/css"><![CDATA[
svg.railroad-diagram path { stroke-width: 2; stroke: darkgray; fill: rgba(0, 0, 0, 0);}/* All text except comments. */svg.railroad-diagram text { font: bold 12px Hack, "Source Code Pro", monospace; text-anchor: middle; fill: #404040;}/* Comment text */svg.railroad-diagram text.comment { font: italic 10px Hack, "Source Code Pro", monospace; fill: #404040;}/* The terminal boxes. */svg.railroad-diagram g.terminal rect { stroke-width: 2; stroke: #404040; fill: rgba(200, 200, 200, 1);}svg.railroad-diagram g.non-terminal rect { /* The non-terminal boxes. */ stroke-width: 2; stroke: #404040; fill: rgba(255, 255, 255, 1);}/* Multiple choice text, not working atm. */svg.railroad-diagram text.diagram-text { font-size: 12px Hack, "Source Code Pro", monospace; fill: red;}/* Multiple choice text, not working atm. */svg.railroad-diagram path.diagram-text { stroke-width: 1; stroke: red; fill: red; cursor: help;}
 ]]>
</style></defs></svg>