<?xml version="1.0" encoding="UTF-8" standalone="no"?>
<!DOCTYPE svg PUBLIC "-//W3C//DTD SVG 1.1//EN" "http://www.w3.org/Graphics/SVG/1.1/DTD/svg11.dtd">
<svg class="railroad-diagram" width="2116.5" height="110" viewBox="0 0 2116.5 110" id="insert_stmt" xmlns="http://www.w3.org/2000/svg" xmlns:xlink="http://www.w3.org/1999/xlink"><g transform="translate(.5 .5)"><g><path d="M20 53v20m0 -10h20"></path></g><g><path d="M40 63h0"></path><path d="M2076.5 63h0"></path><path d="M40 63h20"></path><g><path d="M60 63h0"></path><g><path d="M60 63h10"></path><path d="M2046.5 63h10"></path><g><path d="M70 63h0"></path><path d="M274.5 63h0"></path><path d="M70 63a10 10 0 0 0 10 -10v-7a10 10 0 0 1 10 -10"></path><g><path d="M90 36h164.5"></path></g><path d="M254.5 36a10 10 0 0 1 10 10v7a10 10 0 0 0 10 10"></path><path d="M70 63h20"></path><g class="non-terminal "><path d="M90 63h0"></path><path d="M254.5 63h0"></path><rect x="90" y="52" width="164.5" height="22" rx="10" ry="10"></rect><text x="172.25" y="67">common_table_stmt</text></g><path d="M254.5 63h20"></path></g><path d="M274.5 63h10"></path><g class="terminal "><path d="M284.5 63h0"></path><path d="M372.5 63h0"></path><rect x="284.5" y="52" width="88" height="22"></rect><text x="328.5" y="67">'INSERT'</text></g><path d="M372.5 63h10"></path><path d="M382.5 63h10"></path><g class="terminal "><path d="M392.5 63h0"></path><path d="M463.5 63h0"></path><rect x="392.5" y="52" width="71" height="22"></rect><text x="428" y="67">'INTO'</text></g><path d="M463.5 63h10"></path><path d="M473.5 63h10"></path><g class="non-terminal "><path d="M483.5 63h0"></path><path d="M588.5 63h0"></path><rect x="483.5" y="52" width="105" height="22" rx="10" ry="10"></rect><text x="536" y="67">table_name</text></g><path d="M588.5 63h10"></path><g><path d="M598.5 63h0"></path><path d="M886 63h0"></path><path d="M598.5 63a10 10 0 0 0 10 -10v-7a10 10 0 0 1 10 -10"></path><g><path d="M618.5 36h247.5"></path></g><path d="M866 36a10 10 0 0 1 10 10v7a10 10 0 0 0 10 10"></path><path d="M598.5 63h20"></path><g><path d="M618.5 63h0"></path><path d="M866 63h0"></path><path d="M618.5 63h20"></path><g><path d="M638.5 63h0"></path><g><path d="M638.5 63h10"></path><path d="M836 63h10"></path><g class="terminal "><path d="M648.5 63h0"></path><path d="M702.5 63h0"></path><rect x="648.5" y="52" width="54" height="22"></rect><text x="675.5" y="67">'AS'</text></g><path d="M702.5 63h10"></path><path d="M712.5 63h10"></path><g class="non-terminal "><path d="M722.5 63h0"></path><path d="M836 63h0"></path><rect x="722.5" y="52" width="113.5" height="22" rx="10" ry="10"></rect><text x="779.25" y="67">table_alias</text></g></g><path d="M846 63h0"></path></g><path d="M846 63h20"></path></g><path d="M866 63h20"></path></g><g><path d="M886 63h0"></path><path d="M1529.5 63h0"></path><path d="M886 63a10 10 0 0 0 10 -10v-23a10 10 0 0 1 10 -10"></path><g><path d="M906 20h603.5"></path></g><path d="M1509.5 20a10 10 0 0 1 10 10v23a10 10 0 0 0 10 10"></path><path d="M886 63h20"></path><g><path d="M906 63h0"></path><path d="M1509.5 63h0"></path><path d="M906 63h20"></path><g><path d="M926 63h0"></path><g><path d="M926 63h10"></path><path d="M1479.5 63h10"></path><g class="terminal "><path d="M936 63h0"></path><path d="M981.5 63h0"></path><rect x="936" y="52" width="45.5" height="22"></rect><text x="958.75" y="67">'('</text></g><path d="M981.5 63h10"></path><path d="M991.5 63h10"></path><g class="non-terminal "><path d="M1001.5 63h0"></path><path d="M1115 63h0"></path><rect x="1001.5" y="52" width="113.5" height="22" rx="10" ry="10"></rect><text x="1058.25" y="67">column_name</text></g><path d="M1115 63h10"></path><g><path d="M1125 63h0"></path><path d="M1424 63h0"></path><path d="M1125 63a10 10 0 0 0 10 -10v-7a10 10 0 0 1 10 -10"></path><g><path d="M1145 36h259"></path></g><path d="M1404 36a10 10 0 0 1 10 10v7a10 10 0 0 0 10 10"></path><path d="M1125 63h20"></path><g><path d="M1145 63h0"></path><path d="M1404 63h0"></path><path d="M1145 63h10"></path><g><path d="M1155 63h0"></path><path d="M1394 63h0"></path><path d="M1155 63h20"></path><g><path d="M1175 63h0"></path><g><path d="M1175 63h10"></path><path d="M1364 63h10"></path><g class="terminal "><path d="M1185 63h0"></path><path d="M1230.5 63h0"></path><rect x="1185" y="52" width="45.5" height="22"></rect><text x="1207.75" y="67">','</text></g><path d="M1230.5 63h10"></path><path d="M1240.5 63h10"></path><g class="non-terminal "><path d="M1250.5 63h0"></path><path d="M1364 63h0"></path><rect x="1250.5" y="52" width="113.5" height="22" rx="10" ry="10"></rect><text x="1307.25" y="67">column_name</text></g></g><path d="M1374 63h0"></path></g><path d="M1374 63h20"></path></g><path d="M1394 63h10"></path><path d="M1155 63a10 10 0 0 0 -10 10v7a10 10 0 0 0 10 10"></path><g><path d="M1155 90h239"></path></g><path d="M1394 90a10 10 0 0 0 10 -10v-7a10 10 0 0 0 -10 -10"></path></g><path d="M1404 63h20"></path></g><path d="M1424 63h10"></path><g class="terminal "><path d="M1434 63h0"></path><path d="M1479.5 63h0"></path><rect x="1434" y="52" width="45.5" height="22"></rect><text x="1456.75" y="67">')'</text></g></g><path d="M1489.5 63h0"></path></g><path d="M1489.5 63h20"></path></g><path d="M1509.5 63h20"></path></g><path d="M1529.5 63h10"></path><g class="non-terminal "><path d="M1539.5 63h0"></path><path d="M1670 63h0"></path><rect x="1539.5" y="52" width="130.5" height="22" rx="10" ry="10"></rect><text x="1604.75" y="67">values_clause</text></g><path d="M1670 63h10"></path><g><path d="M1680 63h0"></path><path d="M1850.5 63h0"></path><path d="M1680 63a10 10 0 0 0 10 -10v-7a10 10 0 0 1 10 -10"></path><g><path d="M1700 36h130.5"></path></g><path d="M1830.5 36a10 10 0 0 1 10 10v7a10 10 0 0 0 10 10"></path><path d="M1680 63h20"></path><g class="non-terminal "><path d="M1700 63h0"></path><path d="M1830.5 63h0"></path><rect x="1700" y="52" width="130.5" height="22" rx="10" ry="10"></rect><text x="1765.25" y="67">upsert_clause</text></g><path d="M1830.5 63h20"></path></g><g><path d="M1850.5 63h0"></path><path d="M2046.5 63h0"></path><path d="M1850.5 63a10 10 0 0 0 10 -10v-7a10 10 0 0 1 10 -10"></path><g><path d="M1870.5 36h156"></path></g><path d="M2026.5 36a10 10 0 0 1 10 10v7a10 10 0 0 0 10 10"></path><path d="M1850.5 63h20"></path><g class="non-terminal "><path d="M1870.5 63h0"></path><path d="M2026.5 63h0"></path><rect x="1870.5" y="52" width="156" height="22" rx="10" ry="10"></rect><text x="1948.5" y="67">returning_clause</text></g><path d="M2026.5 63h20"></path></g></g><path d="M2056.5 63h0"></path></g><path d="M2056.5 63h20"></path></g><path d="M 2076.5 63 h 20 m 0 -10 v 20"></path></g><defs><style type="text/css"><![CDATA[
svg.railroad-diagram path { stroke-width: 2; stroke: darkgray; fill: rgba(0, 0, 0, 0);}/* All text except comments. */svg.railroad-diagram text { font: bold 12px Hack, "Source Code Pro", monospace; text-anchor: middle; fill: #404040;}/* Comment text */svg.railroad-diagram text.comment { font: italic 10px Hack, "Source Code Pro", monospace; fill: #404040;}/* The terminal boxes. */svg.railroad-diagram g.terminal rect { stroke-width: 2; stroke: #404040; fill: rgba(200, 200, 200, 1);}svg.railroad-diagram g.non-terminal rect { /* The non-terminal boxes. */ stroke-width: 2; stroke: #404040; fill: rgba(255, 255, 255, 1);}/* Multiple choice text, not working atm. */svg.railroad-diagram text.diagram-text { font-size: 12px Hack, "Source Code Pro", monospace; fill: red;}/* Multiple choice text, not working atm. */svg.railroad-diagram path.diagram-text { stroke-width: 1; stroke: red; fill: red; cursor: help;}
 ]]>
</style></defs></svg>