<?xml version="1.0" encoding="UTF-8" standalone="no"?>
<!DOCTYPE svg PUBLIC "-//W3C//DTD SVG 1.1//EN" "http://www.w3.org/Graphics/SVG/1.1/DTD/svg11.dtd">
<svg class="railroad-diagram" width="580" height="208" viewBox="0 0 580 208" id="join_operator" xmlns="http://www.w3.org/2000/svg" xmlns:xlink="http://www.w3.org/1999/xlink"><g transform="translate(.5 .5)"><g><path d="M20 53v20m0 -10h20"></path></g><g><path d="M40 63h0"></path><path d="M540 63h0"></path><path d="M40 63h20"></path><g><path d="M60 63h0"></path><g><path d="M60 63h10"></path><path d="M510 63h10"></path><g><path d="M70 63h0"></path><path d="M429 63h0"></path><path d="M70 63a10 10 0 0 0 10 -10v-23a10 10 0 0 1 10 -10"></path><g><path d="M90 20h319"></path></g><path d="M409 20a10 10 0 0 1 10 10v23a10 10 0 0 0 10 10"></path><path d="M70 63h20"></path><g><path d="M90 63h0"></path><path d="M409 63h0"></path><path d="M90 63h20"></path><g><path d="M110 63h0"></path><g><path d="M110 63h10"></path><path d="M379 63h10"></path><g><path d="M120 63h0"></path><path d="M259.5 63h0"></path><path d="M120 63h20"></path><g><path d="M140 63h4.25"></path><g><path d="M144.25 63h10"></path><path d="M225.25 63h10"></path><g class="terminal "><path d="M154.25 63h0"></path><path d="M225.25 63h0"></path><rect x="154.25" y="52" width="71" height="22"></rect><text x="189.75" y="67">'LEFT'</text></g></g><path d="M235.25 63h4.25"></path></g><path d="M239.5 63h20"></path><path d="M120 63a10 10 0 0 1 10 10v18a10 10 0 0 0 10 10"></path><g><path d="M140 101h0"></path><g><path d="M140 101h10"></path><path d="M229.5 101h10"></path><g class="terminal "><path d="M150 101h0"></path><path d="M229.5 101h0"></path><rect x="150" y="90" width="79.5" height="22"></rect><text x="189.75" y="105">'RIGHT'</text></g></g><path d="M239.5 101h0"></path></g><path d="M239.5 101a10 10 0 0 0 10 -10v-18a10 10 0 0 1 10 -10"></path><path d="M120 63a10 10 0 0 1 10 10v56a10 10 0 0 0 10 10"></path><g><path d="M140 139h4.25"></path><g><path d="M144.25 139h10"></path><path d="M225.25 139h10"></path><g class="terminal "><path d="M154.25 139h0"></path><path d="M225.25 139h0"></path><rect x="154.25" y="128" width="71" height="22"></rect><text x="189.75" y="143">'FULL'</text></g></g><path d="M235.25 139h4.25"></path></g><path d="M239.5 139a10 10 0 0 0 10 -10v-56a10 10 0 0 1 10 -10"></path></g><g><path d="M259.5 63h0"></path><path d="M379 63h0"></path><path d="M259.5 63a10 10 0 0 0 10 -10v-7a10 10 0 0 1 10 -10"></path><g><path d="M279.5 36h79.5"></path></g><path d="M359 36a10 10 0 0 1 10 10v7a10 10 0 0 0 10 10"></path><path d="M259.5 63h20"></path><g class="terminal "><path d="M279.5 63h0"></path><path d="M359 63h0"></path><rect x="279.5" y="52" width="79.5" height="22"></rect><text x="319.25" y="67">'OUTER'</text></g><path d="M359 63h20"></path></g></g><path d="M389 63h0"></path></g><path d="M389 63h20"></path><path d="M90 63a10 10 0 0 1 10 10v94a10 10 0 0 0 10 10"></path><g><path d="M110 177h89.75"></path><g><path d="M199.75 177h10"></path><path d="M289.25 177h10"></path><g class="terminal "><path d="M209.75 177h0"></path><path d="M289.25 177h0"></path><rect x="209.75" y="166" width="79.5" height="22"></rect><text x="249.5" y="181">'INNER'</text></g></g><path d="M299.25 177h89.75"></path></g><path d="M389 177a10 10 0 0 0 10 -10v-94a10 10 0 0 1 10 -10"></path></g><path d="M409 63h20"></path></g><path d="M429 63h10"></path><g class="terminal "><path d="M439 63h0"></path><path d="M510 63h0"></path><rect x="439" y="52" width="71" height="22"></rect><text x="474.5" y="67">'JOIN'</text></g></g><path d="M520 63h0"></path></g><path d="M520 63h20"></path></g><path d="M 540 63 h 20 m 0 -10 v 20"></path></g><defs><style type="text/css"><![CDATA[
svg.railroad-diagram path { stroke-width: 2; stroke: darkgray; fill: rgba(0, 0, 0, 0);}/* All text except comments. */svg.railroad-diagram text { font: bold 12px Hack, "Source Code Pro", monospace; text-anchor: middle; fill: #404040;}/* Comment text */svg.railroad-diagram text.comment { font: italic 10px Hack, "Source Code Pro", monospace; fill: #404040;}/* The terminal boxes. */svg.railroad-diagram g.terminal rect { stroke-width: 2; stroke: #404040; fill: rgba(200, 200, 200, 1);}svg.railroad-diagram g.non-terminal rect { /* The non-terminal boxes. */ stroke-width: 2; stroke: #404040; fill: rgba(255, 255, 255, 1);}/* Multiple choice text, not working atm. */svg.railroad-diagram text.diagram-text { font-size: 12px Hack, "Source Code Pro", monospace; fill: red;}/* Multiple choice text, not working atm. */svg.railroad-diagram path.diagram-text { stroke-width: 1; stroke: red; fill: red; cursor: help;}
 ]]>
</style></defs></svg>