<?xml version="1.0" encoding="UTF-8" standalone="no"?>
<!DOCTYPE svg PUBLIC "-//W3C//DTD SVG 1.1//EN" "http://www.w3.org/Graphics/SVG/1.1/DTD/svg11.dtd">
<svg class="railroad-diagram" width="500" height="154" viewBox="0 0 500 154" id="result_column" xmlns="http://www.w3.org/2000/svg" xmlns:xlink="http://www.w3.org/1999/xlink"><g transform="translate(.5 .5)"><g><path d="M20 21v20m0 -10h20"></path></g><g><path d="M40 31h0"></path><path d="M460 31h0"></path><path d="M40 31h20"></path><g><path d="M60 31h157.25"></path><g><path d="M217.25 31h10"></path><path d="M272.75 31h10"></path><g class="terminal "><path d="M227.25 31h0"></path><path d="M272.75 31h0"></path><rect x="227.25" y="20" width="45.5" height="22"></rect><text x="250" y="35">'*'</text></g></g><path d="M282.75 31h157.25"></path></g><path d="M440 31h20"></path><path d="M40 31a10 10 0 0 1 10 10v18a10 10 0 0 0 10 10"></path><g><path d="M60 69h62"></path><g><path d="M122 69h10"></path><path d="M368 69h10"></path><g class="non-terminal "><path d="M132 69h0"></path><path d="M237 69h0"></path><rect x="132" y="58" width="105" height="22" rx="10" ry="10"></rect><text x="184.5" y="73">table_name</text></g><path d="M237 69h10"></path><path d="M247 69h10"></path><g class="terminal "><path d="M257 69h0"></path><path d="M302.5 69h0"></path><rect x="257" y="58" width="45.5" height="22"></rect><text x="279.75" y="73">'.'</text></g><path d="M302.5 69h10"></path><path d="M312.5 69h10"></path><g class="terminal "><path d="M322.5 69h0"></path><path d="M368 69h0"></path><rect x="322.5" y="58" width="45.5" height="22"></rect><text x="345.25" y="73">'*'</text></g></g><path d="M378 69h62"></path></g><path d="M440 69a10 10 0 0 0 10 -10v-18a10 10 0 0 1 10 -10"></path><path d="M40 31a10 10 0 0 1 10 10v72a10 10 0 0 0 10 10"></path><g><path d="M60 123h0"></path><g><path d="M60 123h10"></path><path d="M430 123h10"></path><g class="non-terminal "><path d="M70 123h0"></path><path d="M124 123h0"></path><rect x="70" y="112" width="54" height="22" rx="10" ry="10"></rect><text x="97" y="127">expr</text></g><path d="M124 123h10"></path><g><path d="M134 123h0"></path><path d="M430 123h0"></path><path d="M134 123a10 10 0 0 0 10 -10v-7a10 10 0 0 1 10 -10"></path><g><path d="M154 96h256"></path></g><path d="M410 96a10 10 0 0 1 10 10v7a10 10 0 0 0 10 10"></path><path d="M134 123h20"></path><g><path d="M154 123h0"></path><path d="M410 123h0"></path><path d="M154 123h20"></path><g><path d="M174 123h0"></path><g><path d="M174 123h10"></path><path d="M380 123h10"></path><g class="terminal "><path d="M184 123h0"></path><path d="M238 123h0"></path><rect x="184" y="112" width="54" height="22"></rect><text x="211" y="127">'AS'</text></g><path d="M238 123h10"></path><path d="M248 123h10"></path><g class="non-terminal "><path d="M258 123h0"></path><path d="M380 123h0"></path><rect x="258" y="112" width="122" height="22" rx="10" ry="10"></rect><text x="319" y="127">column_alias</text></g></g><path d="M390 123h0"></path></g><path d="M390 123h20"></path></g><path d="M410 123h20"></path></g></g><path d="M440 123h0"></path></g><path d="M440 123a10 10 0 0 0 10 -10v-72a10 10 0 0 1 10 -10"></path></g><path d="M 460 31 h 20 m 0 -10 v 20"></path></g><defs><style type="text/css"><![CDATA[
svg.railroad-diagram path { stroke-width: 2; stroke: darkgray; fill: rgba(0, 0, 0, 0);}/* All text except comments. */svg.railroad-diagram text { font: bold 12px Hack, "Source Code Pro", monospace; text-anchor: middle; fill: #404040;}/* Comment text */svg.railroad-diagram text.comment { font: italic 10px Hack, "Source Code Pro", monospace; fill: #404040;}/* The terminal boxes. */svg.railroad-diagram g.terminal rect { stroke-width: 2; stroke: #404040; fill: rgba(200, 200, 200, 1);}svg.railroad-diagram g.non-terminal rect { /* The non-terminal boxes. */ stroke-width: 2; stroke: #404040; fill: rgba(255, 255, 255, 1);}/* Multiple choice text, not working atm. */svg.railroad-diagram text.diagram-text { font-size: 12px Hack, "Source Code Pro", monospace; fill: red;}/* Multiple choice text, not working atm. */svg.railroad-diagram path.diagram-text { stroke-width: 1; stroke: red; fill: red; cursor: help;}
 ]]>
</style></defs></svg>