<?xml version="1.0" encoding="UTF-8" standalone="no"?>
<!DOCTYPE svg PUBLIC "-//W3C//DTD SVG 1.1//EN" "http://www.w3.org/Graphics/SVG/1.1/DTD/svg11.dtd">
<svg class="railroad-diagram" width="500" height="116" viewBox="0 0 500 116" id="returning_clause_result_column" xmlns="http://www.w3.org/2000/svg" xmlns:xlink="http://www.w3.org/1999/xlink"><g transform="translate(.5 .5)"><g><path d="M20 21v20m0 -10h20"></path></g><g><path d="M40 31h0"></path><path d="M460 31h0"></path><path d="M40 31h20"></path><g><path d="M60 31h157.25"></path><g><path d="M217.25 31h10"></path><path d="M272.75 31h10"></path><g class="terminal "><path d="M227.25 31h0"></path><path d="M272.75 31h0"></path><rect x="227.25" y="20" width="45.5" height="22"></rect><text x="250" y="35">'*'</text></g></g><path d="M282.75 31h157.25"></path></g><path d="M440 31h20"></path><path d="M40 31a10 10 0 0 1 10 10v34a10 10 0 0 0 10 10"></path><g><path d="M60 85h0"></path><g><path d="M60 85h10"></path><path d="M430 85h10"></path><g class="non-terminal "><path d="M70 85h0"></path><path d="M124 85h0"></path><rect x="70" y="74" width="54" height="22" rx="10" ry="10"></rect><text x="97" y="89">expr</text></g><path d="M124 85h10"></path><g><path d="M134 85h0"></path><path d="M430 85h0"></path><path d="M134 85a10 10 0 0 0 10 -10v-7a10 10 0 0 1 10 -10"></path><g><path d="M154 58h256"></path></g><path d="M410 58a10 10 0 0 1 10 10v7a10 10 0 0 0 10 10"></path><path d="M134 85h20"></path><g><path d="M154 85h0"></path><path d="M410 85h0"></path><path d="M154 85h20"></path><g><path d="M174 85h0"></path><g><path d="M174 85h10"></path><path d="M380 85h10"></path><g class="terminal "><path d="M184 85h0"></path><path d="M238 85h0"></path><rect x="184" y="74" width="54" height="22"></rect><text x="211" y="89">'AS'</text></g><path d="M238 85h10"></path><path d="M248 85h10"></path><g class="non-terminal "><path d="M258 85h0"></path><path d="M380 85h0"></path><rect x="258" y="74" width="122" height="22" rx="10" ry="10"></rect><text x="319" y="89">column_alias</text></g></g><path d="M390 85h0"></path></g><path d="M390 85h20"></path></g><path d="M410 85h20"></path></g></g><path d="M440 85h0"></path></g><path d="M440 85a10 10 0 0 0 10 -10v-34a10 10 0 0 1 10 -10"></path></g><path d="M 460 31 h 20 m 0 -10 v 20"></path></g><defs><style type="text/css"><![CDATA[
svg.railroad-diagram path { stroke-width: 2; stroke: darkgray; fill: rgba(0, 0, 0, 0);}/* All text except comments. */svg.railroad-diagram text { font: bold 12px Hack, "Source Code Pro", monospace; text-anchor: middle; fill: #404040;}/* Comment text */svg.railroad-diagram text.comment { font: italic 10px Hack, "Source Code Pro", monospace; fill: #404040;}/* The terminal boxes. */svg.railroad-diagram g.terminal rect { stroke-width: 2; stroke: #404040; fill: rgba(200, 200, 200, 1);}svg.railroad-diagram g.non-terminal rect { /* The non-terminal boxes. */ stroke-width: 2; stroke: #404040; fill: rgba(255, 255, 255, 1);}/* Multiple choice text, not working atm. */svg.railroad-diagram text.diagram-text { font-size: 12px Hack, "Source Code Pro", monospace; fill: red;}/* Multiple choice text, not working atm. */svg.railroad-diagram path.diagram-text { stroke-width: 1; stroke: red; fill: red; cursor: help;}
 ]]>
</style></defs></svg>