<?xml version="1.0" encoding="UTF-8" standalone="no"?>
<!DOCTYPE svg PUBLIC "-//W3C//DTD SVG 1.1//EN" "http://www.w3.org/Graphics/SVG/1.1/DTD/svg11.dtd">
<svg class="railroad-diagram" width="2347.5" height="132" viewBox="0 0 2347.5 132" id="select_core" xmlns="http://www.w3.org/2000/svg" xmlns:xlink="http://www.w3.org/1999/xlink"><g transform="translate(.5 .5)"><g><path d="M20 53v20m0 -10h20"></path></g><g><path d="M40 63h0"></path><path d="M2307.5 63h0"></path><path d="M40 63h20"></path><g><path d="M60 63h0"></path><g><path d="M60 63h10"></path><path d="M2277.5 63h10"></path><g class="terminal "><path d="M70 63h0"></path><path d="M158 63h0"></path><rect x="70" y="52" width="88" height="22"></rect><text x="114" y="67">'SELECT'</text></g><path d="M158 63h10"></path><g><path d="M168 63h0"></path><path d="M313 63h0"></path><path d="M168 63a10 10 0 0 0 10 -10v-7a10 10 0 0 1 10 -10"></path><g><path d="M188 36h105"></path></g><path d="M293 36a10 10 0 0 1 10 10v7a10 10 0 0 0 10 10"></path><path d="M168 63h20"></path><g class="terminal "><path d="M188 63h0"></path><path d="M293 63h0"></path><rect x="188" y="52" width="105" height="22"></rect><text x="240.5" y="67">'DISTINCT'</text></g><path d="M293 63h20"></path></g><path d="M313 63h10"></path><g class="non-terminal "><path d="M323 63h0"></path><path d="M453.5 63h0"></path><rect x="323" y="52" width="130.5" height="22" rx="10" ry="10"></rect><text x="388.25" y="67">result_column</text></g><path d="M453.5 63h10"></path><g><path d="M463.5 63h0"></path><path d="M779.5 63h0"></path><path d="M463.5 63a10 10 0 0 0 10 -10v-7a10 10 0 0 1 10 -10"></path><g><path d="M483.5 36h276"></path></g><path d="M759.5 36a10 10 0 0 1 10 10v7a10 10 0 0 0 10 10"></path><path d="M463.5 63h20"></path><g><path d="M483.5 63h0"></path><path d="M759.5 63h0"></path><path d="M483.5 63h10"></path><g><path d="M493.5 63h0"></path><path d="M749.5 63h0"></path><path d="M493.5 63h20"></path><g><path d="M513.5 63h0"></path><g><path d="M513.5 63h10"></path><path d="M719.5 63h10"></path><g class="terminal "><path d="M523.5 63h0"></path><path d="M569 63h0"></path><rect x="523.5" y="52" width="45.5" height="22"></rect><text x="546.25" y="67">','</text></g><path d="M569 63h10"></path><path d="M579 63h10"></path><g class="non-terminal "><path d="M589 63h0"></path><path d="M719.5 63h0"></path><rect x="589" y="52" width="130.5" height="22" rx="10" ry="10"></rect><text x="654.25" y="67">result_column</text></g></g><path d="M729.5 63h0"></path></g><path d="M729.5 63h20"></path></g><path d="M749.5 63h10"></path><path d="M493.5 63a10 10 0 0 0 -10 10v7a10 10 0 0 0 10 10"></path><g><path d="M493.5 90h256"></path></g><path d="M749.5 90a10 10 0 0 0 10 -10v-7a10 10 0 0 0 -10 -10"></path></g><path d="M759.5 63h20"></path></g><g><path d="M779.5 63h0"></path><path d="M1185 63h0"></path><path d="M779.5 63a10 10 0 0 0 10 -10v-7a10 10 0 0 1 10 -10"></path><g><path d="M799.5 36h365.5"></path></g><path d="M1165 36a10 10 0 0 1 10 10v7a10 10 0 0 0 10 10"></path><path d="M779.5 63h20"></path><g><path d="M799.5 63h0"></path><path d="M1165 63h0"></path><path d="M799.5 63h20"></path><g><path d="M819.5 63h0"></path><g><path d="M819.5 63h10"></path><path d="M1135 63h10"></path><g class="terminal "><path d="M829.5 63h0"></path><path d="M900.5 63h0"></path><rect x="829.5" y="52" width="71" height="22"></rect><text x="865" y="67">'FROM'</text></g><path d="M900.5 63h10"></path><g><path d="M910.5 63h0"></path><path d="M1135 63h0"></path><path d="M910.5 63h20"></path><g><path d="M930.5 63h0"></path><g><path d="M930.5 63h10"></path><path d="M1105 63h10"></path><g class="non-terminal "><path d="M940.5 63h0"></path><path d="M1105 63h0"></path><rect x="940.5" y="52" width="164.5" height="22" rx="10" ry="10"></rect><text x="1022.75" y="67">table_or_subquery</text></g></g><path d="M1115 63h0"></path></g><path d="M1115 63h20"></path><path d="M910.5 63a10 10 0 0 1 10 10v18a10 10 0 0 0 10 10"></path><g><path d="M930.5 101h25.5"></path><g><path d="M956 101h10"></path><path d="M1079.5 101h10"></path><g class="non-terminal "><path d="M966 101h0"></path><path d="M1079.5 101h0"></path><rect x="966" y="90" width="113.5" height="22" rx="10" ry="10"></rect><text x="1022.75" y="105">join_clause</text></g></g><path d="M1089.5 101h25.5"></path></g><path d="M1115 101a10 10 0 0 0 10 -10v-18a10 10 0 0 1 10 -10"></path></g></g><path d="M1145 63h0"></path></g><path d="M1145 63h20"></path></g><path d="M1165 63h20"></path></g><g><path d="M1185 63h0"></path><path d="M1438.5 63h0"></path><path d="M1185 63a10 10 0 0 0 10 -10v-7a10 10 0 0 1 10 -10"></path><g><path d="M1205 36h213.5"></path></g><path d="M1418.5 36a10 10 0 0 1 10 10v7a10 10 0 0 0 10 10"></path><path d="M1185 63h20"></path><g><path d="M1205 63h0"></path><path d="M1418.5 63h0"></path><path d="M1205 63h20"></path><g><path d="M1225 63h0"></path><g><path d="M1225 63h10"></path><path d="M1388.5 63h10"></path><g class="terminal "><path d="M1235 63h0"></path><path d="M1314.5 63h0"></path><rect x="1235" y="52" width="79.5" height="22"></rect><text x="1274.75" y="67">'WHERE'</text></g><path d="M1314.5 63h10"></path><path d="M1324.5 63h10"></path><g class="non-terminal "><path d="M1334.5 63h0"></path><path d="M1388.5 63h0"></path><rect x="1334.5" y="52" width="54" height="22" rx="10" ry="10"></rect><text x="1361.5" y="67">expr</text></g></g><path d="M1398.5 63h0"></path></g><path d="M1398.5 63h20"></path></g><path d="M1418.5 63h20"></path></g><g><path d="M1438.5 63h0"></path><path d="M2277.5 63h0"></path><path d="M1438.5 63a10 10 0 0 0 10 -10v-23a10 10 0 0 1 10 -10"></path><g><path d="M1458.5 20h799"></path></g><path d="M2257.5 20a10 10 0 0 1 10 10v23a10 10 0 0 0 10 10"></path><path d="M1438.5 63h20"></path><g><path d="M1458.5 63h0"></path><path d="M2257.5 63h0"></path><path d="M1458.5 63h20"></path><g><path d="M1478.5 63h0"></path><g><path d="M1478.5 63h10"></path><path d="M2227.5 63h10"></path><g class="terminal "><path d="M1488.5 63h0"></path><path d="M1568 63h0"></path><rect x="1488.5" y="52" width="79.5" height="22"></rect><text x="1528.25" y="67">'GROUP'</text></g><path d="M1568 63h10"></path><path d="M1578 63h10"></path><g class="terminal "><path d="M1588 63h0"></path><path d="M1642 63h0"></path><rect x="1588" y="52" width="54" height="22"></rect><text x="1615" y="67">'BY'</text></g><path d="M1642 63h10"></path><path d="M1652 63h10"></path><g class="non-terminal "><path d="M1662 63h0"></path><path d="M1716 63h0"></path><rect x="1662" y="52" width="54" height="22" rx="10" ry="10"></rect><text x="1689" y="67">expr</text></g><path d="M1716 63h10"></path><g><path d="M1726 63h0"></path><path d="M1965.5 63h0"></path><path d="M1726 63a10 10 0 0 0 10 -10v-7a10 10 0 0 1 10 -10"></path><g><path d="M1746 36h199.5"></path></g><path d="M1945.5 36a10 10 0 0 1 10 10v7a10 10 0 0 0 10 10"></path><path d="M1726 63h20"></path><g><path d="M1746 63h0"></path><path d="M1945.5 63h0"></path><path d="M1746 63h10"></path><g><path d="M1756 63h0"></path><path d="M1935.5 63h0"></path><path d="M1756 63h20"></path><g><path d="M1776 63h0"></path><g><path d="M1776 63h10"></path><path d="M1905.5 63h10"></path><g class="terminal "><path d="M1786 63h0"></path><path d="M1831.5 63h0"></path><rect x="1786" y="52" width="45.5" height="22"></rect><text x="1808.75" y="67">','</text></g><path d="M1831.5 63h10"></path><path d="M1841.5 63h10"></path><g class="non-terminal "><path d="M1851.5 63h0"></path><path d="M1905.5 63h0"></path><rect x="1851.5" y="52" width="54" height="22" rx="10" ry="10"></rect><text x="1878.5" y="67">expr</text></g></g><path d="M1915.5 63h0"></path></g><path d="M1915.5 63h20"></path></g><path d="M1935.5 63h10"></path><path d="M1756 63a10 10 0 0 0 -10 10v7a10 10 0 0 0 10 10"></path><g><path d="M1756 90h179.5"></path></g><path d="M1935.5 90a10 10 0 0 0 10 -10v-7a10 10 0 0 0 -10 -10"></path></g><path d="M1945.5 63h20"></path></g><g><path d="M1965.5 63h0"></path><path d="M2227.5 63h0"></path><path d="M1965.5 63a10 10 0 0 0 10 -10v-7a10 10 0 0 1 10 -10"></path><g><path d="M1985.5 36h222"></path></g><path d="M2207.5 36a10 10 0 0 1 10 10v7a10 10 0 0 0 10 10"></path><path d="M1965.5 63h20"></path><g><path d="M1985.5 63h0"></path><path d="M2207.5 63h0"></path><path d="M1985.5 63h20"></path><g><path d="M2005.5 63h0"></path><g><path d="M2005.5 63h10"></path><path d="M2177.5 63h10"></path><g class="terminal "><path d="M2015.5 63h0"></path><path d="M2103.5 63h0"></path><rect x="2015.5" y="52" width="88" height="22"></rect><text x="2059.5" y="67">'HAVING'</text></g><path d="M2103.5 63h10"></path><path d="M2113.5 63h10"></path><g class="non-terminal "><path d="M2123.5 63h0"></path><path d="M2177.5 63h0"></path><rect x="2123.5" y="52" width="54" height="22" rx="10" ry="10"></rect><text x="2150.5" y="67">expr</text></g></g><path d="M2187.5 63h0"></path></g><path d="M2187.5 63h20"></path></g><path d="M2207.5 63h20"></path></g></g><path d="M2237.5 63h0"></path></g><path d="M2237.5 63h20"></path></g><path d="M2257.5 63h20"></path></g></g><path d="M2287.5 63h0"></path></g><path d="M2287.5 63h20"></path></g><path d="M 2307.5 63 h 20 m 0 -10 v 20"></path></g><defs><style type="text/css"><![CDATA[
svg.railroad-diagram path { stroke-width: 2; stroke: darkgray; fill: rgba(0, 0, 0, 0);}/* All text except comments. */svg.railroad-diagram text { font: bold 12px Hack, "Source Code Pro", monospace; text-anchor: middle; fill: #404040;}/* Comment text */svg.railroad-diagram text.comment { font: italic 10px Hack, "Source Code Pro", monospace; fill: #404040;}/* The terminal boxes. */svg.railroad-diagram g.terminal rect { stroke-width: 2; stroke: #404040; fill: rgba(200, 200, 200, 1);}svg.railroad-diagram g.non-terminal rect { /* The non-terminal boxes. */ stroke-width: 2; stroke: #404040; fill: rgba(255, 255, 255, 1);}/* Multiple choice text, not working atm. */svg.railroad-diagram text.diagram-text { font-size: 12px Hack, "Source Code Pro", monospace; fill: red;}/* Multiple choice text, not working atm. */svg.railroad-diagram path.diagram-text { stroke-width: 1; stroke: red; fill: red; cursor: help;}
 ]]>
</style></defs></svg>