<?xml version="1.0" encoding="UTF-8" standalone="no"?>
<!DOCTYPE svg PUBLIC "-//W3C//DTD SVG 1.1//EN" "http://www.w3.org/Graphics/SVG/1.1/DTD/svg11.dtd">
<svg class="railroad-diagram" width="752.5" height="110" viewBox="0 0 752.5 110" id="sql_stmt_list" xmlns="http://www.w3.org/2000/svg" xmlns:xlink="http://www.w3.org/1999/xlink"><g transform="translate(.5 .5)"><g><path d="M20 37v20m0 -10h20"></path></g><g><path d="M40 47h0"></path><path d="M712.5 47h0"></path><path d="M40 47h20"></path><g><path d="M60 47h0"></path><g><path d="M60 47h10"></path><path d="M682.5 47h10"></path><g><path d="M70 47h0"></path><path d="M175.5 47h0"></path><path d="M70 47a10 10 0 0 0 10 -10v-7a10 10 0 0 1 10 -10"></path><g><path d="M90 20h65.5"></path></g><path d="M155.5 20a10 10 0 0 1 10 10v7a10 10 0 0 0 10 10"></path><path d="M70 47h20"></path><g><path d="M90 47h0"></path><path d="M155.5 47h0"></path><path d="M90 47h10"></path><g class="terminal "><path d="M100 47h0"></path><path d="M145.5 47h0"></path><rect x="100" y="36" width="45.5" height="22"></rect><text x="122.75" y="51">';'</text></g><path d="M145.5 47h10"></path><path d="M100 47a10 10 0 0 0 -10 10v7a10 10 0 0 0 10 10"></path><g><path d="M100 74h45.5"></path></g><path d="M145.5 74a10 10 0 0 0 10 -10v-7a10 10 0 0 0 -10 -10"></path></g><path d="M155.5 47h20"></path></g><path d="M175.5 47h10"></path><g class="non-terminal "><path d="M185.5 47h0"></path><path d="M273.5 47h0"></path><rect x="185.5" y="36" width="88" height="22" rx="10" ry="10"></rect><text x="229.5" y="51">sql_stmt</text></g><path d="M273.5 47h10"></path><g><path d="M283.5 47h0"></path><path d="M577 47h0"></path><path d="M283.5 47a10 10 0 0 0 10 -10v-7a10 10 0 0 1 10 -10"></path><g><path d="M303.5 20h253.5"></path></g><path d="M557 20a10 10 0 0 1 10 10v7a10 10 0 0 0 10 10"></path><path d="M283.5 47h20"></path><g><path d="M303.5 47h0"></path><path d="M557 47h0"></path><path d="M303.5 47h10"></path><g><path d="M313.5 47h0"></path><path d="M547 47h0"></path><path d="M313.5 47h20"></path><g><path d="M333.5 47h0"></path><g><path d="M333.5 47h10"></path><path d="M517 47h10"></path><g><path d="M343.5 47h0"></path><path d="M409 47h0"></path><path d="M343.5 47h10"></path><g class="terminal "><path d="M353.5 47h0"></path><path d="M399 47h0"></path><rect x="353.5" y="36" width="45.5" height="22"></rect><text x="376.25" y="51">';'</text></g><path d="M399 47h10"></path><path d="M353.5 47a10 10 0 0 0 -10 10v7a10 10 0 0 0 10 10"></path><g><path d="M353.5 74h45.5"></path></g><path d="M399 74a10 10 0 0 0 10 -10v-7a10 10 0 0 0 -10 -10"></path></g><path d="M409 47h10"></path><path d="M419 47h10"></path><g class="non-terminal "><path d="M429 47h0"></path><path d="M517 47h0"></path><rect x="429" y="36" width="88" height="22" rx="10" ry="10"></rect><text x="473" y="51">sql_stmt</text></g></g><path d="M527 47h0"></path></g><path d="M527 47h20"></path></g><path d="M547 47h10"></path><path d="M313.5 47a10 10 0 0 0 -10 10v23a10 10 0 0 0 10 10"></path><g><path d="M313.5 90h233.5"></path></g><path d="M547 90a10 10 0 0 0 10 -10v-23a10 10 0 0 0 -10 -10"></path></g><path d="M557 47h20"></path></g><g><path d="M577 47h0"></path><path d="M682.5 47h0"></path><path d="M577 47a10 10 0 0 0 10 -10v-7a10 10 0 0 1 10 -10"></path><g><path d="M597 20h65.5"></path></g><path d="M662.5 20a10 10 0 0 1 10 10v7a10 10 0 0 0 10 10"></path><path d="M577 47h20"></path><g><path d="M597 47h0"></path><path d="M662.5 47h0"></path><path d="M597 47h10"></path><g class="terminal "><path d="M607 47h0"></path><path d="M652.5 47h0"></path><rect x="607" y="36" width="45.5" height="22"></rect><text x="629.75" y="51">';'</text></g><path d="M652.5 47h10"></path><path d="M607 47a10 10 0 0 0 -10 10v7a10 10 0 0 0 10 10"></path><g><path d="M607 74h45.5"></path></g><path d="M652.5 74a10 10 0 0 0 10 -10v-7a10 10 0 0 0 -10 -10"></path></g><path d="M662.5 47h20"></path></g></g><path d="M692.5 47h0"></path></g><path d="M692.5 47h20"></path></g><path d="M 712.5 47 h 20 m 0 -10 v 20"></path></g><defs><style type="text/css"><![CDATA[
svg.railroad-diagram path { stroke-width: 2; stroke: darkgray; fill: rgba(0, 0, 0, 0);}/* All text except comments. */svg.railroad-diagram text { font: bold 12px Hack, "Source Code Pro", monospace; text-anchor: middle; fill: #404040;}/* Comment text */svg.railroad-diagram text.comment { font: italic 10px Hack, "Source Code Pro", monospace; fill: #404040;}/* The terminal boxes. */svg.railroad-diagram g.terminal rect { stroke-width: 2; stroke: #404040; fill: rgba(200, 200, 200, 1);}svg.railroad-diagram g.non-terminal rect { /* The non-terminal boxes. */ stroke-width: 2; stroke: #404040; fill: rgba(255, 255, 255, 1);}/* Multiple choice text, not working atm. */svg.railroad-diagram text.diagram-text { font-size: 12px Hack, "Source Code Pro", monospace; fill: red;}/* Multiple choice text, not working atm. */svg.railroad-diagram path.diagram-text { stroke-width: 1; stroke: red; fill: red; cursor: help;}
 ]]>
</style></defs></svg>