<?xml version="1.0" encoding="UTF-8" standalone="no"?>
<!DOCTYPE svg PUBLIC "-//W3C//DTD SVG 1.1//EN" "http://www.w3.org/Graphics/SVG/1.1/DTD/svg11.dtd">
<svg class="railroad-diagram" width="724.5" height="132" viewBox="0 0 724.5 132" id="table_or_subquery" xmlns="http://www.w3.org/2000/svg" xmlns:xlink="http://www.w3.org/1999/xlink"><g transform="translate(.5 .5)"><g><path d="M20 37v20m0 -10h20"></path></g><g><path d="M40 47h0"></path><path d="M684.5 47h0"></path><path d="M40 47h20"></path><g><path d="M60 47h91"></path><g><path d="M151 47h10"></path><path d="M563.5 47h10"></path><g class="non-terminal "><path d="M161 47h0"></path><path d="M266 47h0"></path><rect x="161" y="36" width="105" height="22" rx="10" ry="10"></rect><text x="213.5" y="51">table_name</text></g><path d="M266 47h10"></path><g><path d="M276 47h0"></path><path d="M563.5 47h0"></path><path d="M276 47a10 10 0 0 0 10 -10v-7a10 10 0 0 1 10 -10"></path><g><path d="M296 20h247.5"></path></g><path d="M543.5 20a10 10 0 0 1 10 10v7a10 10 0 0 0 10 10"></path><path d="M276 47h20"></path><g><path d="M296 47h0"></path><path d="M543.5 47h0"></path><path d="M296 47h20"></path><g><path d="M316 47h0"></path><g><path d="M316 47h10"></path><path d="M513.5 47h10"></path><g class="terminal "><path d="M326 47h0"></path><path d="M380 47h0"></path><rect x="326" y="36" width="54" height="22"></rect><text x="353" y="51">'AS'</text></g><path d="M380 47h10"></path><path d="M390 47h10"></path><g class="non-terminal "><path d="M400 47h0"></path><path d="M513.5 47h0"></path><rect x="400" y="36" width="113.5" height="22" rx="10" ry="10"></rect><text x="456.75" y="51">table_alias</text></g></g><path d="M523.5 47h0"></path></g><path d="M523.5 47h20"></path></g><path d="M543.5 47h20"></path></g></g><path d="M573.5 47h91"></path></g><path d="M664.5 47h20"></path><path d="M40 47a10 10 0 0 1 10 10v34a10 10 0 0 0 10 10"></path><g><path d="M60 101h0"></path><g><path d="M60 101h10"></path><path d="M654.5 101h10"></path><g class="terminal "><path d="M70 101h0"></path><path d="M115.5 101h0"></path><rect x="70" y="90" width="45.5" height="22"></rect><text x="92.75" y="105">'('</text></g><path d="M115.5 101h10"></path><path d="M125.5 101h10"></path><g class="non-terminal "><path d="M135.5 101h0"></path><path d="M291.5 101h0"></path><rect x="135.5" y="90" width="156" height="22" rx="10" ry="10"></rect><text x="213.5" y="105">select_stmt_core</text></g><path d="M291.5 101h10"></path><path d="M301.5 101h10"></path><g class="terminal "><path d="M311.5 101h0"></path><path d="M357 101h0"></path><rect x="311.5" y="90" width="45.5" height="22"></rect><text x="334.25" y="105">')'</text></g><path d="M357 101h10"></path><g><path d="M367 101h0"></path><path d="M654.5 101h0"></path><path d="M367 101a10 10 0 0 0 10 -10v-7a10 10 0 0 1 10 -10"></path><g><path d="M387 74h247.5"></path></g><path d="M634.5 74a10 10 0 0 1 10 10v7a10 10 0 0 0 10 10"></path><path d="M367 101h20"></path><g><path d="M387 101h0"></path><path d="M634.5 101h0"></path><path d="M387 101h20"></path><g><path d="M407 101h0"></path><g><path d="M407 101h10"></path><path d="M604.5 101h10"></path><g class="terminal "><path d="M417 101h0"></path><path d="M471 101h0"></path><rect x="417" y="90" width="54" height="22"></rect><text x="444" y="105">'AS'</text></g><path d="M471 101h10"></path><path d="M481 101h10"></path><g class="non-terminal "><path d="M491 101h0"></path><path d="M604.5 101h0"></path><rect x="491" y="90" width="113.5" height="22" rx="10" ry="10"></rect><text x="547.75" y="105">table_alias</text></g></g><path d="M614.5 101h0"></path></g><path d="M614.5 101h20"></path></g><path d="M634.5 101h20"></path></g></g><path d="M664.5 101h0"></path></g><path d="M664.5 101a10 10 0 0 0 10 -10v-34a10 10 0 0 1 10 -10"></path></g><path d="M 684.5 47 h 20 m 0 -10 v 20"></path></g><defs><style type="text/css"><![CDATA[
svg.railroad-diagram path { stroke-width: 2; stroke: darkgray; fill: rgba(0, 0, 0, 0);}/* All text except comments. */svg.railroad-diagram text { font: bold 12px Hack, "Source Code Pro", monospace; text-anchor: middle; fill: #404040;}/* Comment text */svg.railroad-diagram text.comment { font: italic 10px Hack, "Source Code Pro", monospace; fill: #404040;}/* The terminal boxes. */svg.railroad-diagram g.terminal rect { stroke-width: 2; stroke: #404040; fill: rgba(200, 200, 200, 1);}svg.railroad-diagram g.non-terminal rect { /* The non-terminal boxes. */ stroke-width: 2; stroke: #404040; fill: rgba(255, 255, 255, 1);}/* Multiple choice text, not working atm. */svg.railroad-diagram text.diagram-text { font-size: 12px Hack, "Source Code Pro", monospace; fill: red;}/* Multiple choice text, not working atm. */svg.railroad-diagram path.diagram-text { stroke-width: 1; stroke: red; fill: red; cursor: help;}
 ]]>
</style></defs></svg>