<?xml version="1.0" encoding="UTF-8" standalone="no"?>
<!DOCTYPE svg PUBLIC "-//W3C//DTD SVG 1.1//EN" "http://www.w3.org/Graphics/SVG/1.1/DTD/svg11.dtd">
<svg class="railroad-diagram" width="2185.5" height="116" viewBox="0 0 2185.5 116" id="update_stmt" xmlns="http://www.w3.org/2000/svg" xmlns:xlink="http://www.w3.org/1999/xlink"><g transform="translate(.5 .5)"><g><path d="M20 37v20m0 -10h20"></path></g><g><path d="M40 47h0"></path><path d="M2145.5 47h0"></path><path d="M40 47h20"></path><g><path d="M60 47h0"></path><g><path d="M60 47h10"></path><path d="M2115.5 47h10"></path><g><path d="M70 47h0"></path><path d="M274.5 47h0"></path><path d="M70 47a10 10 0 0 0 10 -10v-7a10 10 0 0 1 10 -10"></path><g><path d="M90 20h164.5"></path></g><path d="M254.5 20a10 10 0 0 1 10 10v7a10 10 0 0 0 10 10"></path><path d="M70 47h20"></path><g class="non-terminal "><path d="M90 47h0"></path><path d="M254.5 47h0"></path><rect x="90" y="36" width="164.5" height="22" rx="10" ry="10"></rect><text x="172.25" y="51">common_table_stmt</text></g><path d="M254.5 47h20"></path></g><path d="M274.5 47h10"></path><g class="terminal "><path d="M284.5 47h0"></path><path d="M372.5 47h0"></path><rect x="284.5" y="36" width="88" height="22"></rect><text x="328.5" y="51">'UPDATE'</text></g><path d="M372.5 47h10"></path><path d="M382.5 47h10"></path><g class="non-terminal "><path d="M392.5 47h0"></path><path d="M582.5 47h0"></path><rect x="392.5" y="36" width="190" height="22" rx="10" ry="10"></rect><text x="487.5" y="51">qualified_table_name</text></g><path d="M582.5 47h10"></path><path d="M592.5 47h10"></path><g class="terminal "><path d="M602.5 47h0"></path><path d="M665 47h0"></path><rect x="602.5" y="36" width="62.5" height="22"></rect><text x="633.75" y="51">'SET'</text></g><path d="M665 47h10"></path><path d="M675 47h10"></path><g class="non-terminal "><path d="M685 47h0"></path><path d="M875 47h0"></path><rect x="685" y="36" width="190" height="22" rx="10" ry="10"></rect><text x="780" y="51">update_set_subclause</text></g><path d="M875 47h10"></path><g><path d="M885 47h0"></path><path d="M1260.5 47h0"></path><path d="M885 47a10 10 0 0 0 10 -10v-7a10 10 0 0 1 10 -10"></path><g><path d="M905 20h335.5"></path></g><path d="M1240.5 20a10 10 0 0 1 10 10v7a10 10 0 0 0 10 10"></path><path d="M885 47h20"></path><g><path d="M905 47h0"></path><path d="M1240.5 47h0"></path><path d="M905 47h10"></path><g><path d="M915 47h0"></path><path d="M1230.5 47h0"></path><path d="M915 47h20"></path><g><path d="M935 47h0"></path><g><path d="M935 47h10"></path><path d="M1200.5 47h10"></path><g class="terminal "><path d="M945 47h0"></path><path d="M990.5 47h0"></path><rect x="945" y="36" width="45.5" height="22"></rect><text x="967.75" y="51">','</text></g><path d="M990.5 47h10"></path><path d="M1000.5 47h10"></path><g class="non-terminal "><path d="M1010.5 47h0"></path><path d="M1200.5 47h0"></path><rect x="1010.5" y="36" width="190" height="22" rx="10" ry="10"></rect><text x="1105.5" y="51">update_set_subclause</text></g></g><path d="M1210.5 47h0"></path></g><path d="M1210.5 47h20"></path></g><path d="M1230.5 47h10"></path><path d="M915 47a10 10 0 0 0 -10 10v7a10 10 0 0 0 10 10"></path><g><path d="M915 74h315.5"></path></g><path d="M1230.5 74a10 10 0 0 0 10 -10v-7a10 10 0 0 0 -10 -10"></path></g><path d="M1240.5 47h20"></path></g><g><path d="M1260.5 47h0"></path><path d="M1666 47h0"></path><path d="M1260.5 47a10 10 0 0 0 10 -10v-7a10 10 0 0 1 10 -10"></path><g><path d="M1280.5 20h365.5"></path></g><path d="M1646 20a10 10 0 0 1 10 10v7a10 10 0 0 0 10 10"></path><path d="M1260.5 47h20"></path><g><path d="M1280.5 47h0"></path><path d="M1646 47h0"></path><path d="M1280.5 47h20"></path><g><path d="M1300.5 47h0"></path><g><path d="M1300.5 47h10"></path><path d="M1616 47h10"></path><g class="terminal "><path d="M1310.5 47h0"></path><path d="M1381.5 47h0"></path><rect x="1310.5" y="36" width="71" height="22"></rect><text x="1346" y="51">'FROM'</text></g><path d="M1381.5 47h10"></path><g><path d="M1391.5 47h0"></path><path d="M1616 47h0"></path><path d="M1391.5 47h20"></path><g><path d="M1411.5 47h0"></path><g><path d="M1411.5 47h10"></path><path d="M1586 47h10"></path><g class="non-terminal "><path d="M1421.5 47h0"></path><path d="M1586 47h0"></path><rect x="1421.5" y="36" width="164.5" height="22" rx="10" ry="10"></rect><text x="1503.75" y="51">table_or_subquery</text></g></g><path d="M1596 47h0"></path></g><path d="M1596 47h20"></path><path d="M1391.5 47a10 10 0 0 1 10 10v18a10 10 0 0 0 10 10"></path><g><path d="M1411.5 85h25.5"></path><g><path d="M1437 85h10"></path><path d="M1560.5 85h10"></path><g class="non-terminal "><path d="M1447 85h0"></path><path d="M1560.5 85h0"></path><rect x="1447" y="74" width="113.5" height="22" rx="10" ry="10"></rect><text x="1503.75" y="89">join_clause</text></g></g><path d="M1570.5 85h25.5"></path></g><path d="M1596 85a10 10 0 0 0 10 -10v-18a10 10 0 0 1 10 -10"></path></g></g><path d="M1626 47h0"></path></g><path d="M1626 47h20"></path></g><path d="M1646 47h20"></path></g><g><path d="M1666 47h0"></path><path d="M1919.5 47h0"></path><path d="M1666 47a10 10 0 0 0 10 -10v-7a10 10 0 0 1 10 -10"></path><g><path d="M1686 20h213.5"></path></g><path d="M1899.5 20a10 10 0 0 1 10 10v7a10 10 0 0 0 10 10"></path><path d="M1666 47h20"></path><g><path d="M1686 47h0"></path><path d="M1899.5 47h0"></path><path d="M1686 47h20"></path><g><path d="M1706 47h0"></path><g><path d="M1706 47h10"></path><path d="M1869.5 47h10"></path><g class="terminal "><path d="M1716 47h0"></path><path d="M1795.5 47h0"></path><rect x="1716" y="36" width="79.5" height="22"></rect><text x="1755.75" y="51">'WHERE'</text></g><path d="M1795.5 47h10"></path><path d="M1805.5 47h10"></path><g class="non-terminal "><path d="M1815.5 47h0"></path><path d="M1869.5 47h0"></path><rect x="1815.5" y="36" width="54" height="22" rx="10" ry="10"></rect><text x="1842.5" y="51">expr</text></g></g><path d="M1879.5 47h0"></path></g><path d="M1879.5 47h20"></path></g><path d="M1899.5 47h20"></path></g><g><path d="M1919.5 47h0"></path><path d="M2115.5 47h0"></path><path d="M1919.5 47a10 10 0 0 0 10 -10v-7a10 10 0 0 1 10 -10"></path><g><path d="M1939.5 20h156"></path></g><path d="M2095.5 20a10 10 0 0 1 10 10v7a10 10 0 0 0 10 10"></path><path d="M1919.5 47h20"></path><g class="non-terminal "><path d="M1939.5 47h0"></path><path d="M2095.5 47h0"></path><rect x="1939.5" y="36" width="156" height="22" rx="10" ry="10"></rect><text x="2017.5" y="51">returning_clause</text></g><path d="M2095.5 47h20"></path></g></g><path d="M2125.5 47h0"></path></g><path d="M2125.5 47h20"></path></g><path d="M 2145.5 47 h 20 m 0 -10 v 20"></path></g><defs><style type="text/css"><![CDATA[
svg.railroad-diagram path { stroke-width: 2; stroke: darkgray; fill: rgba(0, 0, 0, 0);}/* All text except comments. */svg.railroad-diagram text { font: bold 12px Hack, "Source Code Pro", monospace; text-anchor: middle; fill: #404040;}/* Comment text */svg.railroad-diagram text.comment { font: italic 10px Hack, "Source Code Pro", monospace; fill: #404040;}/* The terminal boxes. */svg.railroad-diagram g.terminal rect { stroke-width: 2; stroke: #404040; fill: rgba(200, 200, 200, 1);}svg.railroad-diagram g.non-terminal rect { /* The non-terminal boxes. */ stroke-width: 2; stroke: #404040; fill: rgba(255, 255, 255, 1);}/* Multiple choice text, not working atm. */svg.railroad-diagram text.diagram-text { font-size: 12px Hack, "Source Code Pro", monospace; fill: red;}/* Multiple choice text, not working atm. */svg.railroad-diagram path.diagram-text { stroke-width: 1; stroke: red; fill: red; cursor: help;}
 ]]>
</style></defs></svg>