<?xml version="1.0" encoding="UTF-8" standalone="no"?>
<!DOCTYPE svg PUBLIC "-//W3C//DTD SVG 1.1//EN" "http://www.w3.org/Graphics/SVG/1.1/DTD/svg11.dtd">
<svg class="railroad-diagram" width="2371.5" height="164" viewBox="0 0 2371.5 164" id="upsert_clause" xmlns="http://www.w3.org/2000/svg" xmlns:xlink="http://www.w3.org/1999/xlink"><g transform="translate(.5 .5)"><g><path d="M20 53v20m0 -10h20"></path></g><g><path d="M40 63h0"></path><path d="M2331.5 63h0"></path><path d="M40 63h20"></path><g><path d="M60 63h0"></path><g><path d="M60 63h10"></path><path d="M2301.5 63h10"></path><g class="terminal "><path d="M70 63h0"></path><path d="M124 63h0"></path><rect x="70" y="52" width="54" height="22"></rect><text x="97" y="67">'ON'</text></g><path d="M124 63h10"></path><path d="M134 63h10"></path><g class="terminal "><path d="M144 63h0"></path><path d="M249 63h0"></path><rect x="144" y="52" width="105" height="22"></rect><text x="196.5" y="67">'CONFLICT'</text></g><path d="M249 63h10"></path><g><path d="M259 63h0"></path><path d="M1217 63h0"></path><path d="M259 63a10 10 0 0 0 10 -10v-23a10 10 0 0 1 10 -10"></path><g><path d="M279 20h918"></path></g><path d="M1197 20a10 10 0 0 1 10 10v23a10 10 0 0 0 10 10"></path><path d="M259 63h20"></path><g><path d="M279 63h0"></path><path d="M1197 63h0"></path><path d="M279 63h20"></path><g><path d="M299 63h0"></path><g><path d="M299 63h10"></path><path d="M1167 63h10"></path><g class="terminal "><path d="M309 63h0"></path><path d="M354.5 63h0"></path><rect x="309" y="52" width="45.5" height="22"></rect><text x="331.75" y="67">'('</text></g><path d="M354.5 63h10"></path><path d="M364.5 63h10"></path><g class="non-terminal "><path d="M374.5 63h0"></path><path d="M513.5 63h0"></path><rect x="374.5" y="52" width="139" height="22" rx="10" ry="10"></rect><text x="444" y="67">indexed_column</text></g><path d="M513.5 63h10"></path><g><path d="M523.5 63h0"></path><path d="M848 63h0"></path><path d="M523.5 63a10 10 0 0 0 10 -10v-7a10 10 0 0 1 10 -10"></path><g><path d="M543.5 36h284.5"></path></g><path d="M828 36a10 10 0 0 1 10 10v7a10 10 0 0 0 10 10"></path><path d="M523.5 63h20"></path><g><path d="M543.5 63h0"></path><path d="M828 63h0"></path><path d="M543.5 63h10"></path><g><path d="M553.5 63h0"></path><path d="M818 63h0"></path><path d="M553.5 63h20"></path><g><path d="M573.5 63h0"></path><g><path d="M573.5 63h10"></path><path d="M788 63h10"></path><g class="terminal "><path d="M583.5 63h0"></path><path d="M629 63h0"></path><rect x="583.5" y="52" width="45.5" height="22"></rect><text x="606.25" y="67">','</text></g><path d="M629 63h10"></path><path d="M639 63h10"></path><g class="non-terminal "><path d="M649 63h0"></path><path d="M788 63h0"></path><rect x="649" y="52" width="139" height="22" rx="10" ry="10"></rect><text x="718.5" y="67">indexed_column</text></g></g><path d="M798 63h0"></path></g><path d="M798 63h20"></path></g><path d="M818 63h10"></path><path d="M553.5 63a10 10 0 0 0 -10 10v7a10 10 0 0 0 10 10"></path><g><path d="M553.5 90h264.5"></path></g><path d="M818 90a10 10 0 0 0 10 -10v-7a10 10 0 0 0 -10 -10"></path></g><path d="M828 63h20"></path></g><path d="M848 63h10"></path><g class="terminal "><path d="M858 63h0"></path><path d="M903.5 63h0"></path><rect x="858" y="52" width="45.5" height="22"></rect><text x="880.75" y="67">')'</text></g><path d="M903.5 63h10"></path><g><path d="M913.5 63h0"></path><path d="M1167 63h0"></path><path d="M913.5 63a10 10 0 0 0 10 -10v-7a10 10 0 0 1 10 -10"></path><g><path d="M933.5 36h213.5"></path></g><path d="M1147 36a10 10 0 0 1 10 10v7a10 10 0 0 0 10 10"></path><path d="M913.5 63h20"></path><g><path d="M933.5 63h0"></path><path d="M1147 63h0"></path><path d="M933.5 63h20"></path><g><path d="M953.5 63h0"></path><g><path d="M953.5 63h10"></path><path d="M1117 63h10"></path><g class="terminal "><path d="M963.5 63h0"></path><path d="M1043 63h0"></path><rect x="963.5" y="52" width="79.5" height="22"></rect><text x="1003.25" y="67">'WHERE'</text></g><path d="M1043 63h10"></path><path d="M1053 63h10"></path><g class="non-terminal "><path d="M1063 63h0"></path><path d="M1117 63h0"></path><rect x="1063" y="52" width="54" height="22" rx="10" ry="10"></rect><text x="1090" y="67">expr</text></g></g><path d="M1127 63h0"></path></g><path d="M1127 63h20"></path></g><path d="M1147 63h20"></path></g></g><path d="M1177 63h0"></path></g><path d="M1177 63h20"></path></g><path d="M1197 63h20"></path></g><path d="M1217 63h10"></path><g class="terminal "><path d="M1227 63h0"></path><path d="M1281 63h0"></path><rect x="1227" y="52" width="54" height="22"></rect><text x="1254" y="67">'DO'</text></g><path d="M1281 63h10"></path><g><path d="M1291 63h0"></path><path d="M2301.5 63h0"></path><path d="M1291 63h20"></path><g><path d="M1311 63h427"></path><g><path d="M1738 63h10"></path><path d="M1844.5 63h10"></path><g class="terminal "><path d="M1748 63h0"></path><path d="M1844.5 63h0"></path><rect x="1748" y="52" width="96.5" height="22"></rect><text x="1796.25" y="67">'NOTHING'</text></g></g><path d="M1854.5 63h427"></path></g><path d="M2281.5 63h20"></path><path d="M1291 63a10 10 0 0 1 10 10v34a10 10 0 0 0 10 10"></path><g><path d="M1311 117h0"></path><g><path d="M1311 117h10"></path><path d="M2271.5 117h10"></path><g class="terminal "><path d="M1321 117h0"></path><path d="M1409 117h0"></path><rect x="1321" y="106" width="88" height="22"></rect><text x="1365" y="121">'UPDATE'</text></g><path d="M1409 117h10"></path><path d="M1419 117h10"></path><g class="terminal "><path d="M1429 117h0"></path><path d="M1491.5 117h0"></path><rect x="1429" y="106" width="62.5" height="22"></rect><text x="1460.25" y="121">'SET'</text></g><path d="M1491.5 117h10"></path><g><path d="M1501.5 117h0"></path><path d="M2271.5 117h0"></path><path d="M1501.5 117h20"></path><g><path d="M1521.5 117h0"></path><g><path d="M1521.5 117h10"></path><path d="M2241.5 117h10"></path><g class="non-terminal "><path d="M1531.5 117h0"></path><path d="M1662 117h0"></path><rect x="1531.5" y="106" width="130.5" height="22" rx="10" ry="10"></rect><text x="1596.75" y="121">upsert_update</text></g><path d="M1662 117h10"></path><g><path d="M1672 117h0"></path><path d="M1988 117h0"></path><path d="M1672 117a10 10 0 0 0 10 -10v-7a10 10 0 0 1 10 -10"></path><g><path d="M1692 90h276"></path></g><path d="M1968 90a10 10 0 0 1 10 10v7a10 10 0 0 0 10 10"></path><path d="M1672 117h20"></path><g><path d="M1692 117h0"></path><path d="M1968 117h0"></path><path d="M1692 117h10"></path><g><path d="M1702 117h0"></path><path d="M1958 117h0"></path><path d="M1702 117h20"></path><g><path d="M1722 117h0"></path><g><path d="M1722 117h10"></path><path d="M1928 117h10"></path><g class="terminal "><path d="M1732 117h0"></path><path d="M1777.5 117h0"></path><rect x="1732" y="106" width="45.5" height="22"></rect><text x="1754.75" y="121">','</text></g><path d="M1777.5 117h10"></path><path d="M1787.5 117h10"></path><g class="non-terminal "><path d="M1797.5 117h0"></path><path d="M1928 117h0"></path><rect x="1797.5" y="106" width="130.5" height="22" rx="10" ry="10"></rect><text x="1862.75" y="121">upsert_update</text></g></g><path d="M1938 117h0"></path></g><path d="M1938 117h20"></path></g><path d="M1958 117h10"></path><path d="M1702 117a10 10 0 0 0 -10 10v7a10 10 0 0 0 10 10"></path><g><path d="M1702 144h256"></path></g><path d="M1958 144a10 10 0 0 0 10 -10v-7a10 10 0 0 0 -10 -10"></path></g><path d="M1968 117h20"></path></g><g><path d="M1988 117h0"></path><path d="M2241.5 117h0"></path><path d="M1988 117a10 10 0 0 0 10 -10v-7a10 10 0 0 1 10 -10"></path><g><path d="M2008 90h213.5"></path></g><path d="M2221.5 90a10 10 0 0 1 10 10v7a10 10 0 0 0 10 10"></path><path d="M1988 117h20"></path><g><path d="M2008 117h0"></path><path d="M2221.5 117h0"></path><path d="M2008 117h20"></path><g><path d="M2028 117h0"></path><g><path d="M2028 117h10"></path><path d="M2191.5 117h10"></path><g class="terminal "><path d="M2038 117h0"></path><path d="M2117.5 117h0"></path><rect x="2038" y="106" width="79.5" height="22"></rect><text x="2077.75" y="121">'WHERE'</text></g><path d="M2117.5 117h10"></path><path d="M2127.5 117h10"></path><g class="non-terminal "><path d="M2137.5 117h0"></path><path d="M2191.5 117h0"></path><rect x="2137.5" y="106" width="54" height="22" rx="10" ry="10"></rect><text x="2164.5" y="121">expr</text></g></g><path d="M2201.5 117h0"></path></g><path d="M2201.5 117h20"></path></g><path d="M2221.5 117h20"></path></g></g><path d="M2251.5 117h0"></path></g><path d="M2251.5 117h20"></path></g></g><path d="M2281.5 117h0"></path></g><path d="M2281.5 117a10 10 0 0 0 10 -10v-34a10 10 0 0 1 10 -10"></path></g></g><path d="M2311.5 63h0"></path></g><path d="M2311.5 63h20"></path></g><path d="M 2331.5 63 h 20 m 0 -10 v 20"></path></g><defs><style type="text/css"><![CDATA[
svg.railroad-diagram path { stroke-width: 2; stroke: darkgray; fill: rgba(0, 0, 0, 0);}/* All text except comments. */svg.railroad-diagram text { font: bold 12px Hack, "Source Code Pro", monospace; text-anchor: middle; fill: #404040;}/* Comment text */svg.railroad-diagram text.comment { font: italic 10px Hack, "Source Code Pro", monospace; fill: #404040;}/* The terminal boxes. */svg.railroad-diagram g.terminal rect { stroke-width: 2; stroke: #404040; fill: rgba(200, 200, 200, 1);}svg.railroad-diagram g.non-terminal rect { /* The non-terminal boxes. */ stroke-width: 2; stroke: #404040; fill: rgba(255, 255, 255, 1);}/* Multiple choice text, not working atm. */svg.railroad-diagram text.diagram-text { font-size: 12px Hack, "Source Code Pro", monospace; fill: red;}/* Multiple choice text, not working atm. */svg.railroad-diagram path.diagram-text { stroke-width: 1; stroke: red; fill: red; cursor: help;}
 ]]>
</style></defs></svg>